<?xml version="1.0" encoding="UTF-8"?>
<svg width="512" height="512" viewBox="0 0 512 512" xmlns="http://www.w3.org/2000/svg">
  <defs>
    <mask id="hole">
      <rect width="100%" height="100%" fill="white"/>
      <!-- Larger transparent center for profile image visibility -->
      <circle cx="256" cy="256" r="220" fill="black"/>
    </mask>

    <linearGradient id="cyberGold" x1="0%" y1="0%" x2="100%" y2="100%">
      <stop offset="0%" stop-color="#FFD166"/>
      <stop offset="50%" stop-color="#FCA311"/>
      <stop offset="100%" stop-color="#FF7A00"/>
    </linearGradient>

    <filter id="softGlow" x="-50%" y="-50%" width="200%" height="200%">
      <feGaussianBlur stdDeviation="6" result="blur"/>
      <feMerge>
        <feMergeNode in="blur"/>
        <feMergeNode in="SourceGraphic"/>
      </feMerge>
    </filter>

    <style>
      @keyframes rotate {
        0% { transform: rotate(0deg); }
        100% { transform: rotate(360deg); }
      }

      .rotor { transform-origin: 256px 256px; animation: rotate 10s linear infinite; }
    </style>
  </defs>

  <!-- Outer halo -->
  <circle cx="256" cy="256" r="245" fill="none" stroke="#FCA311" stroke-opacity="0.2" stroke-width="8" filter="url(#softGlow)"/>

  <g mask="url(#hole)">
    <!-- Thinner core ring -->
    <circle cx="256" cy="256" r="240" fill="none" stroke="url(#cyberGold)" stroke-width="34" filter="url(#softGlow)"/>

    <!-- Tech segments rotating with adjusted paths -->
    <g class="rotor" fill="none" stroke="#FFE8B3" stroke-width="4" stroke-linecap="round" opacity="0.8">
      <path d="M256 50 A206 206 0 0 1 380 88"/>
      <path d="M424 132 A206 206 0 0 1 462 256"/>
      <path d="M424 380 A206 206 0 0 1 380 424"/>
      <path d="M256 462 A206 206 0 0 1 132 424"/>
      <path d="M88 380 A206 206 0 0 1 50 256"/>
      <path d="M88 132 A206 206 0 0 1 132 88"/>
    </g>

    <!-- Inner circuit-like ticks positioned outside the center -->
    <g stroke="#FFDFA3" stroke-width="2" opacity="0.7">
      <circle cx="256" cy="256" r="228" fill="none"/>
      <!-- ticks positioned at the frame edge -->
      <g>
        <path d="M256 56 v16"/>
        <path d="M256 440 v16"/>
        <path d="M56 256 h16"/>
        <path d="M440 256 h16"/>
        <path d="M112 112 l12 12"/>
        <path d="M400 400 l12 12"/>
        <path d="M400 112 l-12 12"/>
        <path d="M112 400 l12 -12"/>
      </g>
    </g>
  </g>
</svg>
