<?xml version="1.0" standalone="no"?>
<!DOCTYPE svg PUBLIC "-//W3C//DTD SVG 20010904//EN"
 "http://www.w3.org/TR/2001/REC-SVG-20010904/DTD/svg10.dtd">
<svg version="1.0" xmlns="http://www.w3.org/2000/svg"
 width="1024.000000pt" height="1024.000000pt" viewBox="0 0 1024.000000 1024.000000"
 preserveAspectRatio="xMidYMid meet">
<metadata>
Created by potrace 1.16, written by Peter Selinger 2001-2019
</metadata>
<g transform="translate(0.000000,1024.000000) scale(0.100000,-0.100000)"
fill="#000000" stroke="none">
<path d="M0 5120 l0 -5120 5120 0 5120 0 0 5120 0 5120 -5120 0 -5120 0 0
-5120z m5347 2912 c-26 -44 -28 -123 -4 -169 44 -83 163 -119 244 -74 61 35
88 83 88 155 0 34 -2 68 -5 76 -4 10 22 25 92 54 54 22 100 38 102 35 3 -3
-22 -105 -54 -228 -33 -123 -63 -234 -66 -247 l-6 -24 -612 0 -613 0 -65 248
c-36 136 -64 249 -62 251 4 4 171 -55 192 -68 10 -6 10 -17 1 -52 -16 -60 -5
-112 34 -156 39 -44 82 -63 142 -63 74 0 140 48 164 119 16 50 14 82 -12 131
l-23 45 120 122 121 122 121 -121 122 -121 -21 -35z m592 -740 c-7 -66 -19
-93 -52 -119 -21 -16 -25 -33 -36 -138 -42 -399 -123 -709 -228 -874 -58 -91
-143 -190 -217 -253 l-70 -58 -206 0 -207 0 -39 28 c-47 35 -188 188 -233 255
-49 73 -117 221 -145 321 -46 157 -86 397 -102 612 -6 74 -10 88 -30 101 -32
21 -64 91 -64 141 l0 42 818 0 818 0 -7 -58z m-1704 -187 c50 -29 61 -53 75
-165 16 -132 19 -130 -67 -51 l-78 71 -139 0 -138 0 7 -46 c17 -116 72 -270
132 -373 83 -142 274 -310 443 -389 46 -22 71 -40 84 -64 10 -18 43 -66 73
-105 29 -40 51 -73 48 -73 -24 0 -218 71 -288 106 -133 65 -222 129 -328 234
-105 104 -154 171 -217 297 -41 80 -103 268 -117 349 -13 83 31 176 103 214
32 17 58 19 201 20 157 0 166 -1 206 -25z m2212 -11 c21 -16 48 -50 61 -75 29
-54 26 -110 -13 -244 -67 -232 -142 -363 -294 -516 -113 -113 -214 -186 -346
-249 -71 -34 -231 -90 -255 -90 -6 0 5 20 24 44 18 24 50 71 70 104 33 54 43
63 113 96 273 130 474 387 538 689 25 116 35 107 -121 107 l-137 0 -74 -71
c-41 -39 -77 -69 -79 -67 -3 4 11 109 31 225 4 23 17 40 43 58 37 26 38 26
219 23 l181 -3 39 -31z m763 -360 c208 -43 428 -184 503 -322 86 -159 1 -293
-205 -322 -287 -41 -680 127 -781 334 -71 145 -1 286 160 323 69 15 212 9 323
-13z m-492 -428 c10 -6 -36 -166 -48 -166 -4 0 -19 27 -34 59 l-29 59 22 72
22 72 29 -45 c15 -24 33 -47 38 -51z m106 -100 l39 -33 -21 -64 c-11 -35 -22
-72 -24 -81 -2 -14 -10 -12 -49 17 l-47 34 27 80 c14 44 28 80 31 80 3 0 22
-15 44 -33z m183 -110 c75 -37 178 -73 234 -82 l35 -6 -27 -76 c-26 -74 -28
-77 -57 -75 -55 5 -322 101 -322 116 0 2 15 42 49 130 6 15 12 27 15 27 2 0
35 -15 73 -34z m643 -110 c-23 -47 -51 -93 -63 -101 -30 -19 -107 -46 -107
-37 0 4 14 41 30 82 l31 75 72 35 c40 19 73 35 75 34 1 0 -16 -40 -38 -88z
m-197 -26 c-8 -19 -22 -54 -31 -77 l-16 -43 -54 0 c-39 0 -53 3 -50 13 3 6 15
42 28 78 l23 67 57 -2 58 -1 -15 -35z m-760 -30 c166 -40 282 -122 339 -238
29 -59 33 -76 33 -147 0 -103 -23 -153 -103 -232 -110 -109 -257 -164 -435
-165 -239 -1 -428 96 -509 260 -28 56 -33 76 -33 141 0 91 22 143 93 223 92
101 220 162 375 177 90 9 142 4 240 -19z m967 -190 c-34 -83 -192 -140 -386
-140 l-51 0 -26 50 -26 50 85 0 c141 0 329 37 378 75 29 22 42 3 26 -35z
m-2360 -51 c0 -67 -5 -69 -167 -69 -165 0 -183 6 -183 67 l0 33 175 0 175 0 0
-31z m2431 -223 c-11 -17 -41 -47 -67 -66 l-47 -34 6 70 c4 38 7 83 7 99 0 24
9 37 49 67 48 35 50 36 54 15 2 -12 3 -8 1 10 -1 17 1 34 4 38 4 4 8 -32 10
-80 2 -72 0 -92 -17 -119z m-168 -23 l-6 -93 -36 -9 c-101 -25 -95 -26 -88 16
4 21 7 64 7 96 0 55 1 57 28 58 15 0 43 6 62 13 19 7 36 12 36 12 1 -1 0 -43
-3 -93z m-2279 31 c14 -43 80 -144 94 -144 4 -1 27 -19 52 -40 l45 -40 -345 0
c-323 0 -343 1 -320 16 46 31 131 119 150 154 9 19 21 50 25 68 l7 32 138 0
138 0 16 -46z m2084 -51 c-3 -43 -7 -84 -7 -90 -1 -9 -20 -13 -61 -13 l-60 0
0 90 0 90 68 0 68 0 -8 -77z m-283 -140 c-7 -61 -33 -113 -88 -177 l-34 -39 5
64 c4 61 7 66 58 121 30 31 54 64 54 72 0 9 3 16 6 16 4 0 3 -26 -1 -57z
m-1022 -40 c57 -56 57 -56 57 -117 l0 -61 -54 55 c-52 53 -54 57 -58 118 -2
34 -3 62 -3 62 1 0 27 -25 58 -57z m842 -178 c-6 -49 -8 -53 -51 -73 -24 -12
-49 -22 -55 -22 -7 0 -9 24 -7 65 l3 65 55 27 c52 27 55 27 58 9 2 -11 1 -43
-3 -71z m-1199 60 c9 -14 18 -50 20 -80 l4 -55 -605 0 -605 0 0 54 c0 39 6 60
21 80 l20 26 564 0 565 0 16 -25z m537 0 c63 -27 147 -50 225 -60 l52 -7 0
-64 0 -64 -47 0 c-66 0 -160 24 -239 60 l-65 29 3 66 c1 36 5 65 9 65 4 0 31
-11 62 -25z m473 -76 c-3 -17 -6 -49 -6 -70 0 -40 -2 -42 -72 -54 l-38 -6 0
70 0 70 38 6 c20 4 44 8 52 10 8 1 19 3 24 4 5 0 6 -13 2 -30z m104 -646 c6
-65 24 -232 39 -372 20 -186 24 -254 16 -258 -7 -2 -43 -3 -81 -1 l-69 3 -5
65 -5 65 -98 0 -99 0 -25 -66 -26 -65 -88 0 c-49 0 -89 1 -89 1 0 0 16 38 35
84 19 45 48 119 64 164 93 259 173 473 183 484 7 9 43 13 123 13 l113 0 12
-117z m461 -33 c28 -80 61 -175 73 -212 21 -68 36 -87 36 -45 0 12 9 109 22
215 l22 192 78 0 c43 0 78 -4 78 -9 0 -5 -18 -130 -40 -277 -21 -148 -45 -312
-52 -364 l-13 -95 -71 -3 -71 -3 -84 213 -84 213 -17 -130 c-10 -72 -23 -167
-29 -212 l-11 -83 -70 0 -71 0 7 63 c4 34 25 192 47 351 21 159 39 300 39 313
0 23 2 24 80 21 l80 -3 51 -145z m840 127 c19 -12 41 -38 51 -57 15 -33 15
-46 -13 -245 -48 -356 -49 -358 -123 -398 -37 -19 -59 -22 -230 -25 l-189 -4
5 34 c3 18 25 187 49 376 l44 342 186 0 c177 0 188 -1 220 -23z m-5413 -1092
c1 -1 0 -46 -4 -99 l-7 -96 -192 0 -193 0 -7 -87 c-3 -49 -9 -98 -12 -110 l-5
-23 162 0 162 0 -6 -32 c-3 -18 -8 -53 -11 -78 -13 -100 5 -90 -174 -90 l-158
0 -6 -37 c-3 -21 -13 -101 -22 -178 -9 -77 -18 -150 -21 -162 -4 -22 -8 -23
-115 -23 l-111 0 6 28 c3 15 31 241 62 502 30 261 57 480 58 485 3 9 585 9
594 0z m717 -10 c51 -26 85 -76 85 -127 0 -45 -64 -562 -81 -658 -23 -122 -64
-183 -146 -212 -27 -9 -96 -13 -233 -13 -216 0 -253 7 -294 56 -51 60 -51 81
-6 443 23 182 44 342 47 356 11 45 41 96 77 128 50 44 97 51 341 48 147 -1
175 -4 210 -21z m1710 -53 c-3 -37 -8 -82 -11 -99 l-5 -33 -118 0 -118 0 -6
-72 c-4 -40 -20 -172 -37 -293 -16 -121 -35 -273 -42 -337 l-12 -118 -113 0
-113 0 5 38 c3 20 12 91 20 157 8 66 28 226 45 355 16 129 30 242 30 252 0 16
-11 18 -111 18 l-111 0 7 68 c3 37 8 83 11 102 l5 35 340 -3 340 -3 -6 -67z
m1324 -238 l116 -309 7 55 c4 30 18 152 33 270 14 118 28 232 31 253 l6 37
109 0 c108 0 109 0 104 -22 -2 -13 -34 -234 -70 -493 -36 -258 -68 -478 -71
-487 -5 -16 -19 -18 -113 -18 l-108 0 -12 40 c-10 33 -179 454 -211 525 -7 16
-9 12 -9 -20 -1 -22 -8 -80 -15 -130 -8 -49 -22 -148 -31 -220 -9 -71 -18
-145 -22 -162 l-5 -33 -105 0 -104 0 6 33 c4 25 125 980 125 990 0 2 50 2 112
1 l111 -2 116 -308z m1157 246 c-4 -36 -9 -82 -13 -102 l-6 -38 -187 0 -188 0
-6 -27 c-3 -16 -8 -55 -11 -88 -4 -33 -9 -68 -11 -77 -5 -17 7 -18 155 -18
127 0 161 -3 161 -13 0 -13 -16 -113 -25 -154 -5 -22 -9 -23 -162 -25 l-158
-3 -11 -85 c-7 -47 -13 -95 -13 -107 l-1 -23 191 0 191 0 -6 -57 c-4 -32 -9
-77 -13 -100 l-5 -43 -305 0 -305 0 5 28 c3 15 34 244 69 509 l63 482 50 3
c28 2 162 3 299 3 l248 0 -6 -65z m691 40 c76 -33 95 -94 75 -244 l-7 -50
-109 1 -109 0 -1 59 -1 59 -97 3 c-114 3 -116 2 -125 -108 -7 -82 -15 -76 151
-115 236 -55 276 -94 256 -253 -32 -255 -76 -327 -215 -353 -76 -14 -369 -7
-410 10 -79 32 -101 86 -84 206 6 44 15 84 19 88 4 5 54 5 112 2 l104 -7 -1
-52 0 -51 106 -3 c84 -2 109 0 118 12 19 23 37 154 24 167 -6 6 -81 28 -167
49 -175 43 -216 63 -241 117 -17 36 -17 44 -1 178 31 245 72 296 245 305 166
9 311 1 358 -20z m-4040 -6 c15 -11 39 -36 51 -55 22 -31 23 -41 17 -109 -17
-196 -36 -305 -63 -360 -29 -59 -78 -100 -120 -100 -19 0 -23 -4 -17 -17 4
-10 25 -63 45 -118 21 -55 49 -130 64 -167 l25 -68 -117 0 -117 0 -54 148
c-77 210 -72 202 -129 202 l-48 0 -23 -175 -23 -175 -112 0 -112 0 13 103 c42
320 113 890 113 903 0 13 37 14 289 12 276 -3 291 -4 318 -24z m1220 -6 c-21
-126 -98 -770 -94 -782 5 -13 27 -16 120 -16 80 0 118 4 125 13 10 13 33 169
82 566 16 135 30 246 30 248 0 2 50 3 111 3 l112 0 -7 -40 c-3 -22 -29 -215
-56 -429 -35 -270 -56 -402 -69 -434 -21 -48 -65 -87 -121 -106 -51 -18 -301
-26 -390 -12 -85 13 -115 31 -147 87 -28 48 -28 88 -4 261 11 72 34 253 53
402 l33 271 114 0 113 0 -5 -32z m-2567 -1329 l0 -29 -75 0 -75 0 0 -45 0 -45
60 0 60 0 0 -31 0 -30 -57 2 -58 3 -3 -47 -3 -47 75 0 c74 0 76 -1 76 -24 0
-24 -1 -25 -105 -28 l-105 -3 0 175 0 175 105 2 105 1 0 -29z m275 17 c35 -15
55 -42 55 -73 0 -28 -61 -23 -71 5 -7 18 -17 22 -48 22 -35 0 -41 -3 -47 -25
-4 -17 -1 -32 10 -44 9 -10 13 -20 10 -23 -3 -3 0 -9 7 -14 8 -5 10 -3 4 6
-10 16 55 5 98 -16 55 -29 61 -108 12 -154 -38 -35 -119 -39 -165 -8 -23 15
-36 33 -38 51 -3 24 0 27 27 27 17 0 31 -4 31 -9 0 -4 -12 -6 -27 -3 -16 2
-26 2 -23 -1 3 -3 17 -7 30 -9 14 -2 31 -7 38 -12 7 -4 31 -6 54 -4 24 2 43
-2 45 -8 2 -7 -6 -10 -24 -7 -27 5 -27 5 -8 -10 18 -14 22 -13 48 5 16 11 26
26 23 34 -3 7 -1 16 4 19 19 12 9 33 -17 38 -35 7 -36 5 -17 -19 8 -10 13 -13
9 -6 -8 15 11 16 20 1 4 -6 -3 -13 -14 -16 -20 -5 -21 -6 -4 -20 17 -13 17
-14 -2 -11 -15 2 -21 12 -23 36 -4 36 -14 43 -89 62 -58 15 -83 43 -83 95 0
88 81 130 175 91z m327 3 c54 -14 78 -50 78 -115 0 -78 -27 -106 -108 -112
l-62 -4 0 -57 c0 -56 0 -56 -30 -56 l-30 0 0 175 0 175 58 2 c31 1 74 -2 94
-8z m413 -19 c31 -29 45 -78 44 -155 0 -82 -17 -125 -59 -153 -29 -20 -44 -23
-89 -19 -62 5 -93 31 -110 95 -20 68 -7 200 18 194 7 -1 10 2 6 8 -8 13 12 39
40 51 38 16 123 4 150 -21z m348 10 c56 -27 74 -108 37 -167 -11 -18 -27 -33
-35 -33 -21 0 -20 -5 20 -70 19 -32 35 -59 35 -61 0 -2 -15 -4 -34 -4 -32 0
-38 5 -71 63 -25 42 -43 62 -56 62 -17 0 -19 -8 -19 -60 l0 -60 -33 0 -34 0
-2 175 -2 175 83 -3 c46 -2 96 -10 111 -17z m379 -12 l5 -30 -53 4 c-34 2 -50
0 -44 -6 6 -6 10 -72 10 -148 l0 -138 -35 0 -35 0 0 145 0 145 -45 0 c-43 0
-45 1 -45 30 l0 31 119 -2 119 -2 4 -29z m269 16 c19 -9 29 -21 25 -30 -3 -8
0 -13 7 -11 7 1 13 -10 15 -24 3 -23 0 -25 -27 -21 -17 2 -31 8 -31 12 0 4 12
5 26 2 17 -3 25 -1 21 5 -4 6 -18 9 -32 8 -14 -2 -27 1 -31 6 -3 5 -20 9 -38
9 -76 0 -71 -70 6 -90 99 -25 118 -41 118 -99 0 -45 -19 -78 -55 -96 -80 -37
-185 2 -185 69 0 24 52 21 68 -4 8 -13 23 -20 41 -20 47 0 61 10 61 41 0 32
-12 40 -87 59 -24 6 -51 21 -62 37 -39 48 -21 132 33 153 34 14 95 11 127 -6z
m528 -11 c34 -33 53 -90 26 -79 -9 3 -25 6 -35 6 -10 0 -20 9 -23 21 -5 17
-12 20 -49 17 -36 -3 -44 -7 -46 -26 -5 -33 13 -50 71 -67 28 -8 61 -22 73
-30 49 -32 34 -129 -25 -159 -65 -34 -161 -9 -180 46 -6 17 -11 33 -11 34 0 2
15 4 34 4 26 0 36 -5 41 -21 6 -17 14 -20 53 -17 45 3 47 4 47 33 0 32 -8 37
-100 72 -44 16 -51 23 -64 61 -25 80 18 131 111 132 39 0 53 -5 77 -27z m334
14 c41 -18 57 -37 63 -79 6 -32 4 -34 -23 -33 -21 0 -31 7 -40 28 -7 15 -20
30 -30 34 -10 4 -25 15 -34 25 -22 25 -41 23 -70 -9 l-24 -26 32 23 c27 19 35
21 47 11 14 -12 13 -15 -7 -31 -12 -10 -24 -14 -27 -10 -6 9 -3 -100 4 -183 3
-37 0 -50 -11 -54 -13 -5 -13 -7 1 -15 11 -6 22 -6 31 2 10 8 14 8 17 -1 2 -7
12 -13 22 -15 10 -1 15 0 12 3 -3 4 -1 12 5 20 7 8 8 13 1 13 -5 0 -13 -7 -16
-17 -6 -15 -8 -14 -20 2 -9 13 -15 15 -20 7 -4 -7 -12 -12 -18 -12 -7 0 -7 4
1 13 6 8 8 17 4 21 -4 4 4 3 17 -2 35 -13 77 4 84 34 5 19 13 24 36 24 19 0
30 -5 30 -14 0 -88 -128 -140 -198 -81 -44 37 -55 73 -50 169 5 95 21 130 71
151 41 18 70 18 110 2z m408 -25 c47 -52 51 -198 8 -268 -50 -82 -187 -68
-226 23 -22 55 -15 192 13 230 31 42 62 54 123 50 45 -3 59 -9 82 -35z m337
17 c52 -29 70 -124 31 -173 -11 -14 -27 -26 -35 -26 -18 0 -17 -10 1 -34 18
-24 20 -40 3 -30 -7 4 -8 3 -4 -5 4 -6 11 -9 16 -6 7 4 40 -43 40 -57 0 -8
-66 -2 -72 7 -12 16 -9 30 4 17 7 -7 21 -12 33 -11 13 0 15 2 5 6 -8 2 -22 7
-30 10 -8 4 -19 7 -23 7 -4 1 -18 19 -30 41 -14 25 -31 41 -45 43 -21 3 -22 0
-22 -60 l0 -63 -30 0 -30 0 0 176 0 176 82 -3 c45 -1 92 -8 106 -15z m362 -11
c0 -28 0 -28 -70 -28 l-70 0 0 -45 0 -45 60 0 60 0 0 -30 0 -30 -60 0 -60 0 0
-45 0 -45 75 0 c68 0 75 -2 75 -20 0 -11 0 -23 0 -26 0 -3 -48 -6 -106 -6
l-107 0 -2 169 c-1 92 -1 170 0 173 2 3 49 5 104 5 l101 1 0 -28z m290 17 c32
-16 50 -43 50 -72 0 -16 -6 -18 -34 -15 -34 4 -57 36 -32 45 6 2 -13 2 -43 -1
-44 -4 -52 -2 -46 9 5 8 4 11 -1 6 -10 -9 -15 -97 -5 -95 8 2 89 -20 124 -34
81 -31 52 -167 -39 -184 -73 -14 -154 26 -154 76 0 28 50 28 68 0 9 -15 23
-20 52 -20 43 0 61 19 52 53 -4 15 -2 18 9 12 8 -5 10 -4 6 0 -4 5 -13 10 -20
11 -71 15 -125 37 -144 59 -25 28 -30 82 -13 115 25 46 114 64 170 35z m-4492
-562 c12 -13 22 -33 22 -44 0 -30 -27 -89 -44 -95 -14 -5 -13 -10 5 -35 11
-16 17 -33 14 -39 -3 -5 -8 -19 -10 -30 -5 -26 -45 -61 -62 -55 -7 2 -13 0
-13 -5 0 -5 -7 -7 -15 -4 -8 4 -12 11 -8 17 3 6 1 7 -5 3 -18 -11 -35 3 -23
18 6 7 6 17 1 26 -7 10 -10 11 -10 3 0 -7 -4 -13 -9 -13 -5 0 -11 6 -14 13 -2
6 -2 -1 1 -17 7 -48 28 -60 99 -59 25 0 48 7 58 16 10 11 12 17 4 17 -9 0 -9
3 1 15 6 8 9 18 7 22 -3 5 3 9 14 9 10 0 19 -4 19 -9 0 -4 5 -5 10 -2 12 7 14
26 3 24 -28 -5 -31 2 -16 39 12 33 19 38 39 34 29 -5 30 -10 2 -67 l-22 -45
34 -35 34 -35 -38 0 c-25 0 -43 6 -51 17 -12 16 -14 16 -38 0 -15 -10 -46 -17
-72 -17 -38 0 -52 5 -77 30 -27 27 -30 36 -25 73 4 31 14 49 37 68 31 26 31
27 15 53 -23 35 -23 90 -1 115 33 37 97 34 134 -6z m582 -3 l0 -30 -75 0 -75
0 0 -50 0 -50 60 0 c57 0 60 -1 60 -25 0 -26 2 -25 -90 -29 -24 -1 -25 -4 -28
-73 l-3 -73 -34 0 -35 0 0 180 0 180 110 0 110 0 0 -30z m230 25 c0 -2 23 -79
50 -170 28 -91 50 -170 50 -176 0 -6 -14 -9 -32 -7 -28 3 -33 8 -41 41 l-9 38
-61 -3 c-59 -3 -61 -4 -72 -38 -10 -29 -17 -36 -43 -38 -18 -2 -32 -1 -32 3 0
3 18 65 41 138 23 73 46 148 51 167 6 19 12 38 15 43 4 7 83 10 83 2z m319
-109 c34 -63 61 -117 61 -119 0 -10 -34 0 -38 11 -2 7 -8 12 -13 12 -5 0 -4
-11 3 -25 6 -13 15 -22 21 -18 6 3 7 1 3 -5 -4 -7 -1 -12 8 -12 9 0 16 -4 16
-10 0 -5 3 -9 8 -9 21 4 42 -2 37 -10 -3 -5 -1 -12 5 -16 16 -10 12 21 -5 35
-8 7 -15 9 -15 6 0 -4 -9 -2 -20 4 -11 6 -18 16 -14 22 4 7 9 6 15 -3 5 -8 9
-10 9 -6 0 4 8 3 18 -2 14 -8 19 -6 19 5 0 8 -10 14 -24 14 -23 0 -23 1 -23
120 l0 120 33 0 32 0 0 -180 0 -180 -35 0 c-34 0 -36 2 -100 122 -80 149 -79
146 -46 124 15 -10 30 -15 34 -12 3 3 0 6 -7 6 -7 0 -10 4 -6 9 3 5 -1 16 -9
24 -8 8 -13 17 -10 20 3 3 0 8 -7 13 -8 4 -10 3 -5 -4 4 -7 2 -12 -3 -12 -6 0
-11 8 -11 18 0 14 -2 14 -9 3 -12 -18 -2 -43 13 -34 6 3 3 -3 -7 -14 -14 -16
-15 -22 -5 -25 9 -3 14 -36 16 -121 l4 -117 -36 0 -36 0 0 180 0 180 34 0 c34
0 36 -3 95 -114z m481 84 c0 -29 -1 -30 -49 -30 l-49 0 1 -150 2 -150 -32 0
-33 0 0 150 0 150 -45 0 c-43 0 -45 1 -45 30 l0 30 125 0 125 0 0 -30z m276
-150 c29 -96 54 -176 54 -177 0 -2 -15 -3 -33 -3 -31 0 -35 4 -46 40 l-12 41
-62 -3 -61 -3 -9 -37 c-8 -35 -12 -38 -44 -38 -24 0 -34 4 -30 13 2 6 23 73
46 147 23 74 47 150 53 168 9 31 12 33 50 30 l40 -3 54 -175z m338 149 c13
-13 26 -36 30 -50 5 -25 4 -27 -27 -25 -21 0 -36 8 -42 21 -6 11 -23 24 -38
29 -23 8 -31 6 -49 -12 -18 -18 -20 -25 -10 -46 8 -19 27 -30 81 -46 44 -13
75 -28 81 -40 13 -24 13 -86 0 -111 -42 -78 -230 -55 -230 28 0 19 5 23 29 23
18 0 34 -8 42 -21 26 -38 109 -21 109 23 0 19 -40 45 -80 52 -96 15 -135 116
-68 178 30 28 37 30 91 26 45 -3 63 -10 81 -29z m223 -56 c23 -49 44 -97 48
-107 6 -19 6 -19 23 -2 13 14 14 20 4 23 -6 3 -10 9 -7 14 4 5 -1 6 -9 3 -22
-8 -21 -4 21 81 35 71 39 75 70 75 18 0 33 -2 33 -6 0 -3 -25 -52 -55 -109
-52 -97 -55 -107 -55 -174 l0 -71 -35 0 -35 0 0 69 c0 65 -4 77 -55 174 -30
57 -55 107 -55 110 0 4 15 7 33 7 32 0 35 -4 74 -87z m673 57 c0 -29 -2 -30
-45 -30 -37 0 -45 3 -43 16 2 10 -5 18 -14 19 -13 2 -18 -4 -18 -20 0 -13 -7
-28 -16 -33 -15 -8 -15 -10 0 -15 9 -4 15 -3 14 1 -2 9 20 62 25 62 3 0 5 -74
6 -165 l2 -165 -35 0 -36 0 0 150 0 150 -45 0 c-43 0 -45 1 -45 30 l0 30 125
0 125 0 0 -30z m300 0 l0 -30 -70 0 -70 0 0 -39 c0 -41 -13 -57 -42 -53 -11 2
-16 -3 -15 -17 0 -11 4 -18 8 -15 9 5 21 -27 14 -35 -3 -3 -10 1 -15 9 -8 13
-10 12 -10 -2 0 -19 25 -25 35 -8 12 20 25 -1 25 -41 l0 -39 75 0 75 0 0 -30
0 -30 -110 0 -110 0 0 180 0 180 105 0 105 0 0 -30z m290 16 c0 -8 23 -88 50
-177 28 -89 50 -164 50 -166 0 -1 -15 -3 -34 -3 -31 0 -35 3 -43 38 l-9 37
-62 3 c-43 2 -60 7 -56 14 4 7 3 8 -5 4 -6 -4 -18 -3 -25 3 -10 8 -16 5 -24
-14 -7 -15 -8 -27 -2 -30 6 -4 10 3 10 13 0 15 5 19 20 15 23 -6 24 -9 9 -52
-9 -26 -16 -31 -44 -31 l-33 0 28 93 c16 50 40 131 54 180 l27 87 44 0 c33 0
45 -4 45 -14z m311 -96 c24 -60 46 -110 50 -110 3 0 25 48 50 108 l44 107 38
3 37 3 0 -180 0 -181 -30 0 -30 0 0 116 c0 63 5 124 10 135 6 10 7 19 2 19 -5
0 -28 -47 -52 -105 -39 -96 -45 -105 -69 -105 -24 0 -30 8 -58 78 -17 42 -34
87 -38 100 -3 12 -18 29 -33 37 -15 8 -20 14 -12 15 15 0 44 49 35 58 -2 3 -7
-2 -11 -11 -3 -9 -12 -13 -21 -10 -12 5 -12 7 -1 14 9 6 9 9 1 9 -21 0 -25
-21 -7 -36 17 -14 17 -15 2 -10 -15 4 -18 -1 -18 -34 0 -30 3 -38 14 -34 9 3
12 12 8 22 -5 15 -4 15 11 3 14 -11 17 -33 17 -137 l0 -124 -30 0 -30 0 0 180
0 180 38 0 39 0 44 -110z m530 81 c16 -16 29 -40 29 -53 0 -19 -6 -23 -30 -24
-18 -1 -30 4 -30 11 0 21 -30 38 -65 37 -18 -1 -39 5 -45 13 -10 12 -10 15 0
15 8 0 11 3 7 6 -3 3 -11 3 -17 -1 -8 -5 -8 -10 0 -20 13 -15 3 -24 -22 -20
-10 2 -18 -1 -18 -7 0 -6 7 -7 16 -4 10 4 14 2 11 -6 -2 -7 -10 -12 -16 -10
-15 3 -13 -28 4 -58 16 -28 21 -9 5 21 -15 26 4 24 24 -3 16 -23 16 -23 6 -1
-13 28 -13 60 1 69 7 4 9 0 5 -14 -4 -12 -1 -32 6 -44 7 -13 12 -27 13 -32 0
-5 7 -11 15 -13 13 -4 13 -3 0 6 -20 14 -2 14 55 0 58 -15 85 -41 85 -84 0
-75 -43 -115 -124 -115 -72 0 -99 19 -120 83 -4 14 1 17 30 17 34 0 36 -2 30
-25 -4 -15 -2 -25 4 -25 6 0 8 5 4 11 -4 8 1 9 17 4 13 -4 26 -7 29 -7 53 -1
67 13 56 56 -5 19 -16 26 -58 36 -76 18 -108 51 -108 111 0 40 4 51 31 73 25
21 41 26 86 26 47 0 59 -4 84 -29z m-1151 -151 c0 -30 0 -30 -59 -30 -68 0
-91 6 -91 26 0 8 -5 14 -12 14 -6 0 -8 3 -5 7 4 3 16 -2 27 -12 13 -12 39 -19
75 -21 46 -3 55 0 54 14 0 11 -3 12 -6 4 -2 -6 -10 -9 -15 -6 -20 13 -78 15
-78 4 0 -6 -4 -8 -10 -5 -5 3 -10 13 -10 21 0 11 15 14 65 14 l65 0 0 -30z
m-3420 -135 c0 -2 -10 -10 -22 -16 -21 -11 -22 -11 -9 4 13 16 31 23 31 12z"/>
<path d="M5658 7333 c6 -2 18 -2 25 0 6 3 1 5 -13 5 -14 0 -19 -2 -12 -5z"/>
<path d="M5738 7333 c7 -3 16 -2 19 1 4 3 -2 6 -13 5 -11 0 -14 -3 -6 -6z"/>
<path d="M5788 7333 c7 -3 16 -2 19 1 4 3 -2 6 -13 5 -11 0 -14 -3 -6 -6z"/>
<path d="M5395 6169 c-4 -6 -5 -12 -2 -15 2 -3 7 2 10 11 7 17 1 20 -8 4z"/>
<path d="M5279 6033 c-13 -16 -12 -17 4 -4 9 7 17 15 17 17 0 8 -8 3 -21 -13z"/>
<path d="M5317 5899 c7 -7 15 -10 18 -7 3 3 -2 9 -12 12 -14 6 -15 5 -6 -5z"/>
<path d="M5175 5870 c-3 -5 -1 -10 4 -10 6 0 11 5 11 10 0 6 -2 10 -4 10 -3 0
-8 -4 -11 -10z"/>
<path d="M5208 5863 c7 -3 16 -2 19 1 4 3 -2 6 -13 5 -11 0 -14 -3 -6 -6z"/>
<path d="M5253 5863 c9 -2 23 -2 30 0 6 3 -1 5 -18 5 -16 0 -22 -2 -12 -5z"/>
<path d="M6968 6651 c-76 -25 -128 -84 -128 -143 1 -67 81 -163 180 -213 29
-15 54 -25 56 -23 2 2 -26 25 -61 51 -75 54 -105 97 -105 150 0 118 206 144
409 51 130 -60 210 -148 194 -215 -15 -63 -71 -89 -193 -89 -93 0 -77 -16 25
-25 191 -18 301 66 247 188 -44 98 -150 182 -304 239 -68 25 -102 31 -188 34
-58 2 -117 0 -132 -5z"/>
<path d="M6391 5834 c-190 -51 -296 -187 -261 -335 18 -74 108 -166 195 -198
157 -59 300 -53 443 17 107 52 184 178 167 270 -35 186 -308 310 -544 246z
m284 -99 c120 -41 181 -118 173 -218 -10 -125 -137 -209 -318 -210 -110 -1
-188 22 -242 71 -180 163 -21 393 262 378 41 -2 98 -12 125 -21z"/>
<path d="M7641 5754 c0 -11 3 -14 6 -6 3 7 2 16 -1 19 -3 4 -6 -2 -5 -13z"/>
<path d="M7368 5683 c7 -3 16 -2 19 1 4 3 -2 6 -13 5 -11 0 -14 -3 -6 -6z"/>
<path d="M5138 5703 c7 -3 16 -2 19 1 4 3 -2 6 -13 5 -11 0 -14 -3 -6 -6z"/>
<path d="M5188 5703 c6 -2 18 -2 25 0 6 3 1 5 -13 5 -14 0 -19 -2 -12 -5z"/>
<path d="M5276 5695 c4 -8 8 -15 10 -15 2 0 4 7 4 15 0 8 -4 15 -10 15 -5 0
-7 -7 -4 -15z"/>
<path d="M5097 5639 c7 -7 15 -10 18 -7 3 3 -2 9 -12 12 -14 6 -15 5 -6 -5z"/>
<path d="M5255 5640 c-16 -7 -17 -9 -3 -9 9 -1 20 4 23 9 7 11 7 11 -20 0z"/>
<path d="M7732 5555 c0 -16 2 -22 5 -12 2 9 2 23 0 30 -3 6 -5 -1 -5 -18z"/>
<path d="M5125 5490 c3 -5 8 -10 11 -10 2 0 4 5 4 10 0 6 -5 10 -11 10 -5 0
-7 -4 -4 -10z"/>
<path d="M5261 5464 c0 -11 3 -14 6 -6 3 7 2 16 -1 19 -3 4 -6 -2 -5 -13z"/>
<path d="M5131 5459 c-1 -22 26 -86 39 -94 5 -3 10 -1 10 4 0 6 -5 11 -11 11
-8 0 -7 5 1 16 11 12 11 15 0 12 -8 -2 -19 12 -26 32 -7 19 -13 28 -13 19z"/>
<path d="M5356 5328 c3 -7 17 -22 32 -32 27 -19 27 -19 -2 12 -32 35 -38 38
-30 20z"/>
<path d="M7061 5254 c0 -11 3 -14 6 -6 3 7 2 16 -1 19 -3 4 -6 -2 -5 -13z"/>
<path d="M7019 5223 c-13 -16 -12 -17 4 -4 9 7 17 15 17 17 0 8 -8 3 -21 -13z"/>
<path d="M6825 5100 c-16 -7 -17 -9 -3 -9 9 -1 20 4 23 9 7 11 7 11 -20 0z"/>
<path d="M5480 5129 c0 -5 5 -7 10 -4 6 3 10 8 10 11 0 2 -4 4 -10 4 -5 0 -10
-5 -10 -11z"/>
<path d="M5538 5133 c12 -2 32 -2 45 0 12 2 2 4 -23 4 -25 0 -35 -2 -22 -4z"/>
<path d="M5660 5133 c8 -3 22 -11 30 -17 13 -10 13 -9 1 7 -7 9 -21 17 -30 16
-13 0 -14 -1 -1 -6z"/>
<path d="M5558 5003 c6 -2 18 -2 25 0 6 3 1 5 -13 5 -14 0 -19 -2 -12 -5z"/>
<path d="M5688 5003 c7 -3 16 -2 19 1 4 3 -2 6 -13 5 -11 0 -14 -3 -6 -6z"/>
<path d="M6692 4970 c0 -14 2 -19 5 -12 2 6 2 18 0 25 -3 6 -5 1 -5 -13z"/>
<path d="M6668 4360 c-4 -8 -26 -79 -51 -157 l-44 -143 64 0 64 0 -6 73 c-4
39 -10 110 -14 157 -4 47 -10 78 -13 70z"/>
<path d="M7846 4333 c-3 -21 -15 -110 -26 -198 -11 -88 -22 -172 -25 -187 l-4
-28 84 0 c80 0 85 1 89 23 13 57 55 411 50 418 -3 5 -41 9 -84 9 l-78 0 -6
-37z"/>
<path d="M3032 3212 c-7 -5 -25 -102 -46 -258 -52 -379 -50 -351 -27 -363 29
-16 203 -14 225 2 21 15 27 50 71 396 14 112 24 210 21 217 -4 11 -31 14 -118
14 -62 0 -119 -4 -126 -8z"/>
<path d="M3860 3197 c0 -7 -7 -67 -15 -132 -8 -66 -15 -123 -15 -127 0 -11
212 -10 229 1 17 11 40 126 41 202 0 43 -4 58 -16 63 -9 3 -63 6 -120 6 -78 0
-104 -3 -104 -13z"/>
<path d="M2721 2038 c0 -13 3 -17 6 -10 2 6 9 10 14 6 5 -3 9 2 9 10 0 9 -7
16 -15 16 -9 0 -15 -9 -14 -22z"/>
<path d="M2760 2043 c0 -15 2 -16 10 -3 5 8 10 10 10 4 0 -14 116 -19 124 -5
4 5 1 13 -5 17 -8 4 -9 3 -5 -4 4 -7 1 -12 -9 -12 -9 0 -14 4 -11 8 2 4 -10 8
-27 9 -30 1 -30 1 -7 -7 l25 -8 -27 -1 c-16 -1 -28 4 -28 9 0 6 -11 10 -25 10
-17 0 -25 -5 -25 -17z"/>
<path d="M2730 2009 c-13 -9 -13 -10 2 -5 10 3 18 -1 21 -12 3 -12 5 -11 6 6
1 24 -6 27 -29 11z"/>
<path d="M2720 1980 c0 -5 5 -10 10 -10 6 0 10 -5 10 -11 0 -5 -5 -7 -12 -3
-7 4 -8 3 -4 -5 4 -6 12 -8 18 -5 7 5 9 1 5 -9 -3 -10 -2 -17 4 -17 6 0 7 -5
3 -12 -4 -6 -3 -8 3 -5 15 10 3 62 -18 75 -11 7 -19 8 -19 2z"/>
<path d="M2721 1904 c-1 -12 6 -25 15 -28 10 -4 14 -14 11 -26 -3 -11 -1 -20
4 -20 14 0 11 37 -4 52 -8 7 -16 20 -20 28 -4 10 -6 8 -6 -6z"/>
<path d="M2843 1912 c-33 -5 -28 -17 7 -18 17 -1 30 2 30 7 0 12 -12 15 -37
11z"/>
<path d="M2769 1893 c-13 -17 -13 -17 6 -3 11 8 22 16 24 17 2 2 0 3 -6 3 -6
0 -17 -8 -24 -17z"/>
<path d="M2720 1828 c0 -49 6 -47 13 5 3 20 1 37 -4 37 -5 0 -9 -19 -9 -42z"/>
<path d="M2747 1813 c-4 -3 -7 -13 -7 -21 0 -18 13 -7 16 13 2 17 1 18 -9 8z"/>
<path d="M2720 1760 c0 -19 6 -20 75 -19 41 1 75 5 75 9 0 4 -24 7 -54 6 -30
-1 -54 2 -53 7 1 5 -8 11 -20 13 -18 3 -23 -1 -23 -16z"/>
<path d="M2880 1748 c0 -4 7 -8 15 -8 8 0 15 4 15 8 0 5 -7 9 -15 9 -8 0 -15
-4 -15 -9z"/>
<path d="M3154 2062 c5 -8 -1 -12 -16 -12 -18 0 -20 -2 -8 -10 21 -13 27 -12
33 5 4 8 1 17 -5 21 -7 4 -8 3 -4 -4z"/>
<path d="M3070 2043 c0 -11 3 -14 8 -7 4 6 14 14 22 17 10 4 8 6 -7 6 -16 1
-23 -5 -23 -16z"/>
<path d="M3042 2030 c-14 -23 -16 -50 -3 -50 13 0 43 31 36 38 -3 3 -12 -3
-20 -14 -14 -18 -14 -17 -5 10 13 35 9 42 -8 16z"/>
<path d="M3175 2040 c-3 -5 1 -10 9 -10 9 0 16 5 16 10 0 6 -4 10 -9 10 -6 0
-13 -4 -16 -10z"/>
<path d="M3195 2011 c-3 -5 -1 -12 5 -16 5 -3 10 1 10 9 0 18 -6 21 -15 7z"/>
<path d="M3030 1966 c0 -4 6 -14 14 -22 11 -11 16 -11 19 -1 4 9 6 9 6 0 1 -7
6 -13 12 -13 8 0 7 5 -1 15 -7 9 -15 13 -18 10 -3 -3 -11 0 -19 6 -7 6 -13 8
-13 5z"/>
<path d="M3072 1909 c2 -7 11 -13 20 -15 8 -1 25 -5 37 -9 12 -4 21 -2 21 4 0
6 7 11 16 11 14 0 14 -3 4 -15 -16 -19 -3 -20 16 0 13 12 11 15 -18 23 -21 6
-35 5 -40 -2 -4 -6 -15 -6 -33 2 -20 9 -26 10 -23 1z"/>
<path d="M3217 1875 c3 -8 9 -12 14 -9 12 7 11 11 -5 17 -10 4 -13 1 -9 -8z"/>
<path d="M3062 1765 c4 -25 33 -32 42 -9 5 14 4 15 -8 5 -11 -10 -17 -8 -26 6
-10 17 -11 17 -8 -2z"/>
<path d="M3117 1750 c-3 -11 -1 -20 4 -20 5 0 9 9 9 20 0 11 -2 20 -4 20 -2 0
-6 -9 -9 -20z"/>
<path d="M3381 2043 c0 -10 3 -13 5 -6 3 7 12 9 20 6 8 -3 14 0 14 6 0 6 -9
11 -20 11 -13 0 -20 -6 -19 -17z"/>
<path d="M3432 2048 c3 -7 22 -15 44 -18 21 -3 44 -9 51 -13 6 -4 14 -3 17 2
4 5 -2 12 -11 14 -17 4 -17 5 0 6 20 1 37 -31 19 -37 -6 -2 -9 -9 -6 -17 3 -8
13 -11 21 -8 11 4 14 2 9 -5 -4 -7 -2 -12 3 -12 6 0 11 9 11 20 0 12 -5 17
-14 14 -10 -4 -12 1 -9 19 4 20 -1 26 -26 35 -19 7 -31 7 -31 1 0 -12 -47 -12
-55 1 -9 14 -27 12 -23 -2z"/>
<path d="M3382 1977 c0 -38 4 -47 15 -43 9 4 13 1 10 -6 -2 -7 -10 -12 -16
-10 -20 4 -12 -16 9 -21 17 -4 20 0 20 24 0 16 -4 29 -10 29 -5 0 -10 5 -10
11 0 5 4 8 9 4 5 -3 9 8 9 25 -1 16 -5 30 -10 30 -5 0 -6 -4 -3 -10 3 -5 2
-10 -4 -10 -5 0 -12 6 -14 13 -3 6 -5 -10 -5 -36z"/>
<path d="M3432 1958 l3 -63 39 1 c45 2 66 23 66 64 0 37 -29 60 -74 60 l-37 0
3 -62z"/>
<path d="M3572 1932 c3 -11 -1 -31 -9 -44 l-15 -23 21 24 c23 26 27 46 9 57
-7 5 -9 0 -6 -14z"/>
<path d="M3551 1914 c0 -11 3 -14 6 -6 3 7 2 16 -1 19 -3 4 -6 -2 -5 -13z"/>
<path d="M3490 1880 c-23 -7 -23 -8 -3 -9 12 -1 25 4 28 9 3 6 5 10 3 9 -2 -1
-14 -5 -28 -9z"/>
<path d="M3430 1871 c0 -5 9 -11 21 -14 16 -4 18 -3 8 9 -13 16 -29 19 -29 5z"/>
<path d="M3381 1795 c1 -47 4 -55 20 -55 11 0 19 5 19 11 0 6 -7 9 -15 5 -8
-3 -15 -1 -15 4 0 6 7 10 15 10 21 0 21 66 -1 74 -9 3 -17 6 -20 6 -2 0 -3
-25 -3 -55z m29 14 c0 -10 -4 -19 -9 -19 -5 0 -8 11 -7 24 1 28 16 24 16 -5z"/>
<path d="M3822 2063 c-6 -2 -10 -9 -6 -14 8 -14 21 -11 21 6 0 8 -1 15 -1 14
-1 0 -7 -3 -14 -6z"/>
<path d="M3773 2048 c-8 -12 -9 -24 -3 -45 1 -5 6 5 11 21 9 34 7 43 -8 24z"/>
<path d="M3880 2048 c0 -5 -5 -6 -12 -2 -7 4 -8 3 -4 -4 9 -15 36 -16 36 -1 0
5 5 7 11 3 21 -13 -11 -28 -55 -25 -65 4 -76 -13 -76 -114 0 -99 16 -129 70
-127 18 0 38 6 43 11 15 15 23 96 16 161 -6 56 4 85 25 73 6 -3 3 3 -7 14 -17
20 -47 27 -47 11z"/>
<path d="M3741 1986 c-11 -13 -10 -18 3 -31 9 -9 16 -15 17 -13 10 43 -1 67
-20 44z"/>
<path d="M3924 1958 c3 -13 6 -35 6 -50 0 -16 5 -28 11 -28 7 0 8 11 4 30 -4
20 -3 30 5 30 7 0 10 -7 6 -15 -3 -8 -1 -15 4 -15 6 0 10 8 10 18 0 20 -20 54
-20 35 0 -7 -5 -13 -11 -13 -6 0 -9 7 -5 15 3 8 0 15 -5 15 -7 0 -9 -9 -5 -22z"/>
<path d="M3725 1940 c3 -5 8 -10 11 -10 2 0 4 5 4 10 0 6 -5 10 -11 10 -5 0
-7 -4 -4 -10z"/>
<path d="M3749 1913 c-1 -10 -1 -21 0 -25 0 -5 -4 -8 -10 -8 -8 0 -8 -5 1 -15
7 -8 9 -15 4 -15 -5 0 -2 -5 6 -10 13 -8 12 -10 -2 -10 -10 0 -18 -4 -18 -9 0
-5 8 -8 18 -6 10 1 16 9 14 21 -2 11 -3 36 -2 57 1 36 -9 54 -11 20z"/>
<path d="M3720 1904 c0 -8 5 -12 10 -9 6 3 10 10 10 16 0 5 -4 9 -10 9 -5 0
-10 -7 -10 -16z"/>
<path d="M3962 1880 c0 -14 2 -19 5 -12 2 6 2 18 0 25 -3 6 -5 1 -5 -13z"/>
<path d="M3925 1861 c-3 -5 0 -13 6 -17 7 -4 9 -3 5 4 -3 5 0 13 6 15 9 4 10
6 1 6 -6 1 -14 -3 -18 -8z"/>
<path d="M3930 1800 c0 -5 5 -10 11 -10 5 0 7 5 4 10 -3 6 -8 10 -11 10 -2 0
-4 -4 -4 -10z"/>
<path d="M3747 1787 c20 -37 53 -60 53 -37 0 6 -7 10 -15 10 -8 0 -12 6 -9 14
3 8 -3 16 -15 19 -14 3 -19 1 -14 -6z"/>
<path d="M3919 1763 c-13 -16 -12 -17 4 -4 9 7 17 15 17 17 0 8 -8 3 -21 -13z"/>
<path d="M3820 1760 c-5 -3 -5 -12 -1 -19 10 -16 51 -6 51 13 0 12 -33 16 -50
6z"/>
<path d="M4170 2059 c-29 -5 -31 -7 -8 -8 14 0 28 -7 31 -13 3 -10 7 -10 18
-2 8 7 23 14 34 18 13 3 10 4 -7 2 -15 -2 -29 0 -30 3 -2 3 -19 3 -38 0z"/>
<path d="M4115 2050 c3 -5 8 -10 11 -10 2 0 4 5 4 10 0 6 -5 10 -11 10 -5 0
-7 -4 -4 -10z"/>
<path d="M4140 2031 c0 -7 -4 -9 -10 -6 -6 4 -7 -1 -3 -11 6 -15 7 -15 15 1 6
9 7 19 4 22 -3 4 -6 1 -6 -6z"/>
<path d="M4276 2013 c1 -14 5 -28 9 -31 4 -4 6 0 5 8 -4 29 0 41 13 34 6 -4 8
-3 4 1 -17 19 -34 12 -31 -12z"/>
<path d="M4160 1960 l0 -60 38 0 c51 0 75 19 74 59 -1 46 -18 61 -68 61 l-44
0 0 -60z"/>
<path d="M4111 1957 c2 -48 5 -57 18 -52 12 4 11 1 -2 -9 -11 -8 -17 -22 -14
-33 4 -17 5 -17 6 0 0 10 6 15 11 12 6 -4 8 -11 5 -16 -8 -11 -3 -11 29 1 14
5 26 15 26 22 0 10 -2 10 -9 -1 -7 -11 -9 -11 -14 0 -4 10 -6 10 -6 2 -1 -7
-5 -13 -11 -13 -6 0 -7 18 -3 45 3 28 2 45 -5 45 -5 0 -8 -9 -5 -20 3 -11 0
-20 -6 -20 -13 0 -15 47 -2 52 5 2 3 12 -5 23 -14 18 -15 15 -13 -38z"/>
<path d="M4307 1984 c-7 -7 2 -34 12 -34 4 0 7 9 7 20 0 20 -7 25 -19 14z"/>
<path d="M4287 1943 c-14 -14 -6 -32 13 -30 11 1 20 5 20 10 0 5 -7 7 -14 4
-10 -4 -13 -1 -9 9 5 15 1 18 -10 7z"/>
<path d="M4265 1891 c-10 -17 17 -24 31 -7 8 9 9 11 2 6 -16 -13 -31 -13 -23
0 3 6 4 10 1 10 -3 0 -7 -4 -11 -9z"/>
<path d="M4200 1873 c0 -13 3 -14 12 -5 7 7 17 12 22 12 6 0 5 -5 -2 -12 -14
-14 -16 -32 -3 -23 5 3 12 1 15 -4 4 -5 -1 -11 -10 -13 -15 -3 -15 -4 1 -18
11 -9 16 -10 11 -2 -4 6 -3 12 2 12 16 0 24 -33 10 -42 -8 -5 -9 -8 -2 -8 6 0
17 7 24 15 8 9 8 15 2 15 -6 0 -13 14 -17 30 -4 17 -11 27 -17 24 -6 -4 -8 1
-3 15 5 18 2 21 -19 21 -18 0 -26 -5 -26 -17z"/>
<path d="M4110 1813 c0 -18 2 -33 4 -33 9 0 13 39 5 51 -6 10 -9 4 -9 -18z"/>
<path d="M4135 1790 c5 -14 2 -20 -9 -20 -9 0 -16 -7 -16 -15 0 -8 5 -15 11
-15 5 0 7 5 4 10 -3 6 -2 10 4 10 5 0 12 -6 14 -12 3 -7 6 4 6 25 1 20 -4 37
-10 37 -6 0 -8 -9 -4 -20z"/>
<path d="M4290 1773 c0 -6 8 -17 18 -24 16 -13 16 -13 2 6 -8 11 -16 22 -17
24 -2 2 -3 0 -3 -6z"/>
<path d="M4449 2051 c11 -7 11 -9 0 -14 -8 -3 4 -5 26 -5 22 0 30 3 18 5 -13
2 -23 9 -23 14 0 5 -8 9 -17 9 -14 0 -15 -2 -4 -9z"/>
<path d="M4535 2035 c0 -30 11 -33 18 -5 5 21 27 28 27 9 0 -8 5 -8 15 1 10 9
15 9 15 1 0 -6 9 -11 20 -11 11 0 20 6 20 13 0 10 -17 14 -57 16 -56 2 -58 1
-58 -24z"/>
<path d="M4537 1993 c-11 -11 -8 -20 8 -20 8 0 15 6 15 14 0 14 -12 17 -23 6z"/>
<path d="M4536 1961 c-4 -6 -1 -11 6 -11 10 0 10 -2 1 -8 -8 -5 -12 -26 -11
-55 1 -25 3 -45 4 -44 1 1 9 17 19 36 15 30 15 33 1 28 -22 -9 -20 9 2 22 16
9 16 11 1 26 -11 12 -19 13 -23 6z"/>
<path d="M4526 1803 c10 -40 15 -42 12 -5 -1 18 -6 32 -10 32 -5 0 -5 -12 -2
-27z"/>
<path d="M4550 1785 c-2 -11 -2 -23 -1 -27 0 -4 -7 -4 -16 -1 -11 4 -14 3 -9
-5 9 -16 33 -15 39 1 2 6 1 21 -4 32 l-8 20 -1 -20z"/>
<path d="M4840 2063 c0 -7 -9 -9 -22 -6 -13 3 -21 3 -18 0 13 -14 63 -15 77
-2 13 13 12 15 -1 15 -9 0 -16 -6 -16 -12 0 -9 -4 -8 -10 2 -5 8 -10 10 -10 3z"/>
<path d="M4900 2049 c0 -5 4 -8 9 -4 6 3 14 -3 20 -12 6 -10 11 -13 11 -7 0
12 -20 34 -32 34 -4 0 -8 -5 -8 -11z"/>
<path d="M4770 2021 c-6 -16 -10 -38 -7 -48 3 -13 5 -12 6 6 1 24 1 24 17 5
16 -20 16 -13 -2 31 -3 8 -1 15 5 15 6 0 11 -8 11 -17 0 -15 2 -16 10 -3 11
17 13 37 3 27 -3 -4 -12 -2 -18 3 -9 8 -16 2 -25 -19z"/>
<path d="M4775 1951 c-3 -5 0 -13 6 -17 7 -4 9 -3 5 4 -3 5 0 13 6 15 9 4 10
6 1 6 -6 1 -14 -3 -18 -8z"/>
<path d="M4830 1924 c0 -2 12 -9 26 -14 14 -6 22 -14 19 -20 -3 -5 1 -10 9
-10 9 0 16 4 16 9 0 5 9 7 20 4 19 -5 19 -6 4 -18 -16 -11 -15 -13 4 -26 15
-11 18 -19 11 -29 -5 -8 -9 -22 -8 -30 0 -8 7 2 16 22 8 21 19 35 24 32 5 -3
9 0 9 6 0 6 -10 8 -26 4 -20 -5 -25 -3 -22 7 3 8 14 13 24 11 18 -2 18 -2 0
13 -11 8 -27 16 -35 17 -31 3 -36 4 -46 9 -18 11 -45 18 -45 13z"/>
<path d="M4790 1910 c8 -5 22 -9 30 -9 10 0 8 3 -5 9 -27 12 -43 12 -25 0z"/>
<path d="M4965 1821 c-3 -6 -3 -11 2 -11 4 0 2 -4 -6 -9 -8 -5 -9 -11 -3 -15
6 -3 14 3 17 15 8 23 1 36 -10 20z"/>
<path d="M4760 1799 c0 -6 6 -9 14 -6 7 3 19 0 25 -6 9 -9 11 -8 6 6 -8 19
-45 24 -45 6z"/>
<path d="M4778 1785 c-9 -15 3 -31 31 -40 21 -6 22 -5 10 8 -8 8 -17 13 -21
11 -3 -2 -8 4 -10 13 -2 11 -6 14 -10 8z"/>
<path d="M4820 1776 c0 -2 7 -9 15 -16 9 -7 15 -8 15 -2 0 5 -7 12 -15 16 -8
3 -15 4 -15 2z"/>
<path d="M4911 1771 c-1 -7 -7 -11 -16 -8 -8 4 -17 2 -20 -3 -4 -6 -1 -10 5
-10 6 0 9 -4 6 -9 -4 -5 5 -6 21 -2 15 4 29 13 31 20 3 8 0 11 -6 7 -6 -3 -13
0 -15 6 -4 10 -6 10 -6 -1z"/>
<path d="M5336 2061 c-7 -11 -6 -12 29 -16 28 -3 85 -33 85 -45 0 -6 8 -10 18
-9 10 0 12 3 5 6 -7 2 -13 9 -13 14 0 6 5 7 11 3 7 -4 7 1 -1 15 -9 18 -14 20
-25 11 -15 -13 -39 -4 -30 11 3 5 -2 6 -11 2 -10 -4 -15 -2 -11 3 3 6 -3 11
-14 11 -10 1 -19 -4 -19 -10 0 -8 -3 -7 -9 2 -6 9 -11 10 -15 2z m124 -31 c0
-5 -5 -10 -11 -10 -5 0 -7 5 -4 10 3 6 8 10 11 10 2 0 4 -4 4 -10z"/>
<path d="M5296 2041 c-3 -5 0 -14 8 -20 10 -9 15 -8 19 3 9 22 -15 37 -27 17z"/>
<path d="M5298 1993 c-11 -3 -18 -13 -17 -26 0 -15 2 -17 6 -7 4 8 13 20 22
27 17 13 16 13 -11 6z"/>
<path d="M5306 1955 c4 -8 8 -15 10 -15 2 0 4 7 4 15 0 8 -4 15 -10 15 -5 0
-7 -7 -4 -15z"/>
<path d="M5299 1923 c18 -36 82 -43 80 -10 0 9 -2 9 -6 0 -7 -20 -20 -15 -26
9 -5 17 -9 19 -20 10 -10 -9 -17 -8 -26 1 -11 10 -11 8 -2 -10z m41 -3 c0 -5
-5 -10 -11 -10 -5 0 -7 5 -4 10 3 6 8 10 11 10 2 0 4 -4 4 -10z"/>
<path d="M5393 1893 c-17 -14 -17 -14 0 -9 10 3 17 0 17 -7 0 -8 3 -9 8 -1 4
6 14 13 22 16 10 3 8 6 -7 10 -13 3 -30 -1 -40 -9z"/>
<path d="M5456 1873 c-6 -14 -5 -15 5 -6 7 7 10 15 7 18 -3 3 -9 -2 -12 -12z"/>
<path d="M5450 1840 c0 -5 7 -7 15 -4 8 4 15 8 15 10 0 2 -7 4 -15 4 -8 0 -15
-4 -15 -10z"/>
<path d="M5280 1801 c0 -5 7 -8 16 -7 9 0 19 -5 22 -13 3 -9 0 -11 -8 -6 -8 5
-11 1 -8 -11 2 -13 13 -19 33 -21 20 -1 23 0 8 4 -13 2 -23 8 -23 13 0 5 8 6
18 3 16 -7 16 -6 0 11 -10 9 -18 22 -18 27 0 5 -9 9 -20 9 -11 0 -20 -4 -20
-9z"/>
<path d="M5439 1781 c-9 -20 -18 -27 -31 -23 -11 2 -18 -1 -18 -9 0 -8 -6 -5
-16 7 -15 18 -15 18 -5 -2 8 -17 17 -21 43 -18 33 4 78 43 78 67 -1 7 -7 1
-14 -12 -8 -15 -16 -20 -20 -12 -4 6 -2 11 3 11 6 0 11 5 11 10 0 20 -19 9
-31 -19z m21 -15 c0 -3 -4 -8 -10 -11 -5 -3 -10 -1 -10 4 0 6 5 11 10 11 6 0
10 -2 10 -4z"/>
<path d="M5796 2017 c3 -10 9 -15 12 -12 3 3 0 11 -7 18 -10 9 -11 8 -5 -6z"/>
<path d="M5825 2009 c10 -35 23 -45 18 -15 -3 15 -10 29 -15 32 -6 4 -7 -2 -3
-17z"/>
<path d="M5637 1980 c-8 -11 -14 -46 -14 -82 -1 -35 1 -53 4 -40 2 12 9 22 15
22 5 0 8 -6 5 -12 -2 -7 0 -23 4 -35 7 -18 5 -23 -7 -23 -20 0 -13 -22 8 -26
12 -1 14 7 11 45 -3 25 -5 52 -6 59 0 7 -6 11 -14 8 -9 -4 -13 3 -13 20 0 20
4 25 18 22 12 -4 18 1 18 13 0 11 -4 19 -8 19 -4 0 -5 7 -2 15 9 21 -2 19 -19
-5z m13 -20 c0 -5 -5 -10 -11 -10 -5 0 -7 5 -4 10 3 6 8 10 11 10 2 0 4 -4 4
-10z"/>
<path d="M5806 1815 c-2 -7 5 -11 17 -10 11 1 23 7 25 13 4 14 -36 11 -42 -3z"/>
<path d="M5810 1776 c7 -7 13 -7 20 0 6 6 3 10 -10 10 -13 0 -16 -4 -10 -10z"/>
<path d="M5785 1750 c-3 -5 -2 -10 4 -10 5 0 13 5 16 10 3 6 2 10 -4 10 -5 0
-13 -4 -16 -10z"/>
<path d="M6051 2059 c-13 -5 -30 -17 -37 -27 -22 -29 -15 -32 13 -6 14 13 33
22 42 20 9 -3 30 -8 46 -10 17 -3 38 -15 47 -26 10 -12 19 -16 23 -10 3 6 11
8 16 5 5 -4 9 -1 9 6 0 6 -8 9 -20 6 -15 -4 -27 3 -42 24 -21 28 -48 39 -48
19 0 -5 -5 -10 -11 -10 -5 0 -7 5 -4 10 7 12 -2 12 -34 -1z"/>
<path d="M6157 2049 c7 -7 15 -10 18 -7 3 3 -2 9 -12 12 -14 6 -15 5 -6 -5z"/>
<path d="M6053 2016 c1 -6 -3 -10 -10 -11 -6 0 -15 -4 -20 -9 -4 -5 -3 -6 4
-3 8 5 11 -13 10 -66 -1 -39 2 -92 6 -117 4 -25 9 -51 9 -57 2 -15 18 -18 18
-3 0 5 7 7 15 4 8 -4 13 -9 11 -13 -3 -4 4 -7 15 -7 10 0 19 4 19 8 0 4 -7 8
-15 8 -8 0 -15 5 -15 10 0 6 -9 10 -19 10 -11 0 -22 3 -24 8 -3 4 14 5 38 4
61 -5 75 18 75 124 0 64 -4 84 -17 96 -20 18 -102 29 -100 14z"/>
<path d="M6196 1978 c3 -4 9 -8 15 -8 5 0 9 4 9 8 0 5 -7 9 -15 9 -8 0 -12 -4
-9 -9z"/>
<path d="M5987 1961 c-3 -13 0 -18 12 -16 18 2 22 26 5 32 -6 2 -14 -5 -17
-16z"/>
<path d="M6181 1954 c0 -11 3 -14 6 -6 3 7 2 16 -1 19 -3 4 -6 -2 -5 -13z"/>
<path d="M6203 1943 c4 -6 1 -13 -7 -16 -9 -3 -12 -15 -9 -31 6 -29 28 -35 37
-10 5 14 4 15 -9 4 -13 -11 -14 -10 -9 4 4 10 1 16 -7 16 -8 0 -6 5 6 13 14
11 15 16 5 22 -8 5 -11 4 -7 -2z"/>
<path d="M5985 1890 c-8 -13 3 -68 15 -75 5 -3 4 8 -1 25 -6 17 -8 37 -5 45 6
17 0 20 -9 5z"/>
<path d="M6012 1860 c0 -19 2 -27 5 -17 2 9 2 25 0 35 -3 9 -5 1 -5 -18z"/>
<path d="M6180 1837 c0 -10 -4 -26 -9 -35 -6 -11 -4 -21 4 -29 10 -10 14 -9
19 3 3 9 1 12 -4 9 -6 -3 -10 1 -10 9 0 9 5 16 11 16 5 0 7 5 4 10 -3 6 -3 15
1 22 5 8 10 6 15 -8 7 -18 8 -17 8 3 1 16 -4 21 -19 20 -12 -1 -20 -8 -20 -20z"/>
<path d="M6010 1766 c0 -2 7 -7 16 -10 8 -3 12 -2 9 4 -6 10 -25 14 -25 6z"/>
<path d="M6150 1750 c-9 -6 -10 -10 -3 -10 6 0 15 5 18 10 8 12 4 12 -15 0z"/>
<path d="M6397 2053 c-14 -13 -7 -32 9 -26 13 5 13 7 2 14 -10 7 -9 9 5 9 9 0
17 -4 17 -10 0 -5 5 -10 11 -10 5 0 7 5 4 10 -3 6 1 10 9 10 9 0 16 -4 16 -9
0 -15 35 -18 48 -4 11 11 9 13 -12 9 -14 -3 -28 0 -31 5 -7 10 -68 12 -78 2z"/>
<path d="M6362 2004 c-1 -20 0 -35 2 -33 8 8 14 69 7 69 -4 0 -8 -16 -9 -36z"/>
<path d="M6410 1960 l0 -60 38 0 c52 0 75 19 74 61 -1 41 -23 59 -74 59 l-38
0 0 -60z"/>
<path d="M6554 2012 c3 -5 0 -13 -6 -15 -9 -4 -10 -6 -1 -6 17 -1 25 16 12 25
-7 4 -9 3 -5 -4z"/>
<path d="M6386 1975 c4 -9 0 -15 -10 -15 -11 0 -16 -9 -16 -31 0 -16 4 -28 9
-25 5 3 7 15 4 26 -4 14 0 20 11 20 9 0 16 8 16 20 0 11 -4 20 -10 20 -5 0 -7
-7 -4 -15z"/>
<path d="M6540 1958 c0 -11 7 -18 18 -18 13 0 14 -2 4 -9 -7 -4 -12 -12 -11
-17 4 -21 -2 -28 -11 -14 -8 13 -10 12 -10 -2 0 -10 -5 -18 -12 -18 -6 0 -8
-3 -5 -6 4 -4 18 1 33 10 14 10 23 20 20 23 -3 4 -1 12 6 20 8 10 8 17 0 25
-7 7 -12 8 -12 3 0 -6 -5 -3 -10 5 -8 13 -10 12 -10 -2z"/>
<path d="M6391 1924 c0 -11 3 -14 6 -6 3 7 2 16 -1 19 -3 4 -6 -2 -5 -13z"/>
<path d="M6390 1877 c0 -14 3 -17 13 -9 6 6 26 12 42 14 26 3 25 4 -12 9 -37
4 -43 2 -43 -14z"/>
<path d="M6362 1863 c4 -38 38 -62 38 -28 0 8 -6 14 -12 13 -8 -2 -13 7 -12
20 0 12 -3 22 -8 22 -5 0 -8 -12 -6 -27z"/>
<path d="M6480 1880 c0 -5 5 -10 10 -10 6 0 10 5 10 10 0 6 -4 10 -10 10 -5 0
-10 -4 -10 -10z"/>
<path d="M6490 1853 c0 -5 5 -15 10 -23 7 -12 9 -10 7 8 -1 19 -17 33 -17 15z"/>
<path d="M6360 1783 c0 -35 3 -43 18 -43 14 0 19 8 20 30 0 16 -3 32 -7 34 -4
3 -6 -8 -5 -25 1 -16 -3 -29 -8 -29 -6 0 -8 10 -5 23 4 12 2 29 -3 37 -7 11
-10 3 -10 -27z"/>
<path d="M6713 2045 c0 -8 5 -13 11 -12 6 1 10 -11 8 -28 l-2 -30 15 35 c9 19
20 37 26 41 5 3 -5 6 -24 7 -23 1 -34 -3 -34 -13z m37 -5 c0 -5 -2 -10 -4 -10
-3 0 -8 5 -11 10 -3 6 -1 10 4 10 6 0 11 -4 11 -10z"/>
<path d="M6784 2043 c-16 -12 -16 -13 8 -13 15 0 29 6 31 13 4 10 6 10 6 0 1
-19 31 -16 31 2 0 19 -50 17 -76 -2z"/>
<path d="M6710 1969 c0 -15 5 -19 15 -15 8 3 15 0 15 -6 0 -6 3 -8 7 -5 3 4
-3 16 -15 27 l-22 21 0 -22z"/>
<path d="M6716 1933 c6 -4 14 -15 17 -23 5 -11 6 -9 4 4 -1 11 -9 21 -17 23
-10 3 -11 2 -4 -4z"/>
<path d="M6774 1903 c12 -12 58 -15 51 -3 -3 5 -18 10 -32 10 -15 0 -23 -3
-19 -7z"/>
<path d="M6710 1872 c0 -14 7 -34 17 -44 15 -17 15 -18 0 -18 -20 0 -23 -16
-4 -23 9 -4 8 -8 -3 -16 -13 -10 -13 -11 0 -11 13 0 13 -1 0 -10 -13 -8 -12
-10 4 -10 11 0 16 5 13 14 -3 7 0 19 6 25 8 8 8 11 -2 11 -11 0 -11 3 0 16 10
13 10 17 0 24 -14 8 -6 50 10 50 21 0 7 15 -16 16 -21 2 -25 -3 -25 -24z"/>
<path d="M6848 1893 c7 -3 16 -2 19 1 4 3 -2 6 -13 5 -11 0 -14 -3 -6 -6z"/>
<path d="M6753 1756 c0 -10 19 -14 74 -15 40 -1 73 3 73 8 0 5 -9 7 -20 4 -13
-3 -20 0 -20 8 0 10 -3 10 -12 1 -14 -14 -32 -16 -23 -2 4 6 -2 7 -17 1 -14
-5 -31 -5 -39 0 -11 5 -16 4 -16 -5z"/>
<path d="M7140 2060 c21 -8 17 -9 -20 -5 -32 2 -40 1 -28 -6 19 -11 111 -8
100 3 -4 4 -23 10 -42 13 -31 4 -32 4 -10 -5z"/>
<path d="M7045 2034 c-13 -20 -14 -28 -5 -34 9 -6 8 -10 -5 -18 -16 -8 -17
-13 -6 -40 14 -33 36 -48 47 -30 4 6 3 9 -2 6 -5 -3 -15 0 -22 8 -7 8 -9 14
-4 14 5 0 8 19 7 43 -2 23 1 50 6 60 15 26 3 20 -16 -9z m-2 -69 c-3 -9 -8
-14 -10 -11 -3 3 -2 9 2 15 9 16 15 13 8 -4z"/>
<path d="M7195 2020 c-3 -6 1 -7 9 -4 18 7 21 14 7 14 -6 0 -13 -4 -16 -10z"/>
<path d="M7098 1906 c3 -11 7 -15 10 -8 2 6 8 12 14 12 6 0 8 -6 5 -13 -3 -8
1 -14 9 -14 7 0 11 4 8 9 -3 4 5 6 18 4 13 -3 26 -5 31 -5 4 -1 7 -9 8 -18 0
-11 3 -13 6 -5 2 6 9 10 14 6 5 -3 9 -3 9 0 0 9 -40 27 -89 40 -46 12 -48 12
-43 -8z"/>
<path d="M7215 1849 c-4 -6 -5 -12 -2 -15 2 -3 7 2 10 11 7 17 1 20 -8 4z"/>
<path d="M7229 1823 c-1 -5 -1 -11 0 -15 0 -5 -3 -8 -9 -8 -5 0 -9 -5 -7 -11
1 -6 -4 -14 -12 -17 -10 -3 -12 0 -7 14 7 17 6 17 -12 -1 -21 -22 -25 -45 -7
-45 17 0 55 43 60 68 2 12 2 22 -1 22 -2 0 -5 -3 -5 -7z"/>
<path d="M7034 1801 c14 -5 16 -10 7 -15 -9 -6 -8 -12 5 -27 19 -21 34 -25 34
-9 0 6 -5 9 -11 8 -6 -2 -14 3 -17 11 -3 10 0 12 11 8 14 -5 15 -3 4 13 -6 11
-21 20 -32 19 -19 0 -19 -1 -1 -8z"/>
<path d="M7105 1750 c-2 -3 5 -7 16 -7 10 -1 19 2 19 6 0 9 -29 10 -35 1z"/>
<path d="M2575 1500 c-8 -9 -15 -23 -15 -31 1 -8 8 -2 16 14 8 15 20 27 26 27
7 0 6 -5 -2 -15 -17 -21 -7 -19 19 4 l21 19 -24 0 c-14 0 -32 -8 -41 -18z"/>
<path d="M2650 1514 c0 -17 23 -44 32 -38 8 5 9 1 3 -12 -4 -10 -8 -31 -10
-47 -2 -30 -14 -49 -16 -26 -1 8 -2 30 -3 49 -1 30 -4 35 -26 35 -26 0 -29
-10 -17 -67 4 -22 2 -28 -11 -29 -14 0 -13 -2 3 -9 19 -8 18 -11 -4 -14 -21
-3 -23 -16 -3 -16 12 0 22 5 22 11 0 5 5 7 10 4 6 -4 8 -10 6 -14 -3 -4 -1
-13 5 -21 6 -11 9 -12 9 -2 0 7 5 10 10 7 8 -5 8 -11 0 -20 -8 -9 -8 -15 0
-20 5 -3 10 2 10 12 0 15 2 16 10 3 5 -8 10 -10 10 -5 0 6 -16 27 -36 48 -20
20 -30 37 -23 37 11 0 11 2 -1 10 -13 8 -12 10 3 10 9 0 17 -7 17 -15 0 -22
17 -18 34 7 18 25 21 42 6 33 -15 -9 -12 7 5 31 12 19 12 24 -1 40 -9 11 -13
12 -9 4 4 -10 2 -9 -8 3 -14 17 -27 22 -27 11z"/>
<path d="M2572 1451 c-15 -9 1 -61 19 -61 8 0 9 4 0 13 -6 8 -8 17 -4 20 3 4
0 7 -8 7 -12 0 -12 2 1 10 8 5 12 11 9 14 -2 3 -10 1 -17 -3z"/>
<path d="M2744 1328 c-4 -6 -3 -8 4 -4 5 3 13 0 15 -6 3 -8 6 -6 6 5 1 19 -14
23 -25 5z"/>
<path d="M2540 1315 c-7 -9 -11 -17 -9 -20 3 -2 10 5 17 15 14 24 10 26 -8 5z"/>
<path d="M2573 1318 c-15 -20 -25 -38 -20 -38 3 0 12 11 21 25 17 26 16 35 -1
13z"/>
<path d="M2591 1304 c-25 -32 -25 -33 -5 -62 17 -25 42 -28 69 -8 18 13 17 15
-12 55 l-31 42 -21 -27z"/>
<path d="M2734 1299 c-4 -7 -3 -9 4 -5 5 3 13 0 15 -6 4 -9 6 -10 6 -1 1 17
-16 25 -25 12z"/>
<path d="M2728 1231 c8 -4 13 -11 13 -15 -3 -19 0 -29 6 -23 3 4 13 1 21 -6 9
-6 5 3 -8 21 -13 17 -29 32 -34 32 -6 0 -5 -4 2 -9z"/>
<path d="M3076 1503 c-4 -9 -2 -21 4 -27 7 -7 10 -3 10 13 0 13 4 19 10 16 6
-4 8 -16 4 -27 -4 -14 -3 -18 6 -13 6 4 9 16 7 27 -4 15 -1 18 13 13 10 -3 21
-2 24 3 3 5 -12 9 -33 10 -28 1 -41 -3 -45 -15z"/>
<path d="M3190 1510 c0 -5 5 -10 10 -10 6 0 10 5 10 10 0 6 -4 10 -10 10 -5 0
-10 -4 -10 -10z"/>
<path d="M3220 1504 c0 -12 -8 -14 -33 -10 -18 3 -38 1 -46 -3 -8 -5 7 -9 38
-9 45 -1 51 1 51 18 0 11 -2 20 -5 20 -3 0 -5 -7 -5 -16z"/>
<path d="M3246 1511 c-4 -6 -1 -11 6 -11 9 0 9 -3 -2 -10 -13 -8 -12 -10 3
-10 19 0 21 8 8 29 -6 9 -11 10 -15 2z"/>
<path d="M3074 1430 c0 -11 4 -20 8 -20 4 0 8 9 8 20 0 11 -4 20 -8 20 -4 0
-8 -9 -8 -20z"/>
<path d="M3108 1443 c0 -5 -2 -12 -3 -18 -2 -5 -3 -16 -4 -23 0 -7 -5 -11 -10
-7 -5 3 -12 1 -16 -5 -3 -5 1 -10 9 -10 18 0 26 12 32 45 4 22 -3 38 -8 18z"/>
<path d="M3098 1356 c-10 -7 -18 -19 -18 -27 0 -8 6 -6 15 7 13 16 14 16 9 2
-6 -18 10 -26 20 -10 2 4 28 7 58 6 29 0 45 1 36 3 -10 3 -18 8 -18 13 0 5 -9
8 -19 7 -11 0 -17 -5 -15 -9 3 -4 -2 -8 -10 -8 -9 0 -16 6 -16 13 0 8 -4 7
-10 -3 -9 -13 -14 -7 -11 13 1 9 -1 9 -21 -7z"/>
<path d="M3218 1353 c7 -3 16 -2 19 1 4 3 -2 6 -13 5 -11 0 -14 -3 -6 -6z"/>
<path d="M3083 1297 c3 -8 1 -20 -3 -27 -5 -8 -3 -19 5 -27 22 -21 31 -15 31
21 0 26 -4 32 -15 28 -9 -3 -12 -1 -7 6 4 7 2 12 -4 12 -7 0 -10 -6 -7 -13z
m20 -37 c3 -11 1 -18 -4 -14 -5 3 -9 12 -9 20 0 20 7 17 13 -6z"/>
<path d="M3100 1210 c0 -5 5 -10 11 -10 5 0 7 5 4 10 -3 6 -8 10 -11 10 -2 0
-4 -4 -4 -10z"/>
<path d="M3442 1512 c-6 -5 -13 -20 -14 -35 -1 -15 -7 -27 -13 -27 -5 0 -4 -4
4 -9 7 -5 10 -14 7 -20 -4 -6 -2 -11 3 -11 9 0 16 23 9 33 -1 1 4 13 11 26 8
14 9 21 2 17 -6 -4 -11 -3 -11 2 0 6 7 12 15 16 20 7 19 -3 -10 -112 -14 -51
-25 -95 -25 -98 0 -2 20 -4 45 -4 25 0 45 5 45 10 0 6 -9 44 -20 85 -14 52
-17 81 -11 97 10 24 15 12 11 -31 -1 -16 3 -22 12 -19 14 6 13 57 -3 72 -12
13 -42 17 -57 8z"/>
<path d="M3511 1416 c-17 -21 -3 -69 18 -61 13 5 14 4 4 -6 -7 -7 -13 -22 -13
-33 0 -17 2 -18 10 -6 5 8 12 11 16 7 4 -3 1 -15 -7 -24 -13 -17 -13 -17 5 -3
18 14 19 13 13 -3 -4 -10 -7 -21 -7 -23 0 -3 -4 -2 -10 1 -6 3 -7 -1 -4 -9 7
-19 20 -21 27 -3 3 6 6 -4 6 -23 1 -26 -2 -31 -9 -20 -8 13 -10 13 -10 -1 0
-12 8 -16 24 -15 21 1 23 4 13 21 -6 11 -10 21 -9 23 6 7 -22 92 -29 92 -5 0
-6 7 -3 15 3 8 0 17 -8 20 -10 4 -13 16 -10 35 5 33 0 37 -17 16z"/>
<path d="M3389 1363 c-5 -16 -12 -34 -14 -40 -2 -7 0 -13 5 -13 6 0 10 9 10
21 0 11 5 17 10 14 6 -4 7 -12 4 -18 -4 -7 -1 -6 7 2 11 10 11 15 2 18 -7 3
-13 12 -13 20 0 9 6 13 15 9 8 -3 15 -1 15 4 0 22 -31 8 -41 -17z"/>
<path d="M3400 1301 c0 -8 -7 -11 -15 -7 -8 3 -15 2 -16 -2 -1 -13 -7 -37 -14
-57 l-7 -20 13 20 c6 11 21 30 32 42 11 13 17 26 14 30 -4 3 -7 1 -7 -6z"/>
<path d="M3415 1270 c6 -10 105 -12 105 -2 0 4 -25 8 -55 8 -30 1 -53 -2 -50
-6z"/>
<path d="M3375 1229 c-10 -43 -1 -46 12 -4 6 19 7 35 3 35 -5 0 -11 -14 -15
-31z"/>
<path d="M3340 1194 c0 -8 5 -12 10 -9 6 4 8 11 5 16 -9 14 -15 11 -15 -7z"/>
<path d="M3719 1502 c-1 -38 -1 -102 1 -104 1 -2 2 -40 3 -85 0 -48 5 -83 11
-83 6 0 5 -5 -2 -12 -7 -7 -12 -19 -11 -28 0 -10 2 -11 6 -2 2 6 9 10 14 6 5
-3 9 11 9 31 0 20 -4 34 -9 30 -6 -3 -9 4 -8 15 1 11 4 20 7 20 3 0 6 23 7 50
1 29 -3 50 -9 50 -6 0 -9 23 -6 59 1 33 0 63 -5 67 -4 4 -7 -2 -8 -14z m18
-174 c-3 -8 -6 -5 -6 6 -1 11 2 17 5 13 3 -3 4 -12 1 -19z"/>
<path d="M3940 1509 c0 -5 -4 -8 -9 -4 -5 3 -12 1 -16 -5 -3 -5 3 -10 14 -10
12 0 21 7 21 15 0 8 -2 15 -5 15 -3 0 -5 -5 -5 -11z"/>
<path d="M3929 1464 c-16 -20 -22 -54 -9 -54 6 0 9 3 9 8 -1 4 0 16 1 27 2 17
3 17 10 -5 8 -24 8 -23 9 8 1 36 -1 38 -20 16z"/>
<path d="M3930 1402 c-19 -9 -23 -53 -5 -45 8 2 15 -4 18 -14 4 -14 5 -14 6 5
0 12 -3 22 -9 22 -5 0 -10 5 -10 11 0 5 5 7 10 4 6 -3 10 1 10 9 0 9 -1 16 -2
15 -2 0 -10 -3 -18 -7z"/>
<path d="M3805 1380 c-3 -5 2 -10 12 -10 15 0 16 -2 3 -10 -13 -9 -13 -11 0
-20 8 -5 22 -9 30 -9 10 1 9 3 -3 6 -10 3 -16 11 -13 18 6 17 -19 40 -29 25z"/>
<path d="M3916 1325 c4 -8 10 -15 15 -15 4 0 6 7 3 15 -4 8 -10 15 -15 15 -4
0 -6 -7 -3 -15z"/>
<path d="M3890 1214 c0 -6 6 -17 14 -23 10 -9 15 -8 19 3 4 9 2 18 -3 21 -6 4
-10 0 -10 -7 0 -9 -3 -9 -10 2 -5 8 -10 10 -10 4z"/>
<path d="M4128 1498 c4 -16 7 -18 10 -8 3 8 10 18 16 22 6 5 2 8 -11 8 -17 0
-20 -4 -15 -22z"/>
<path d="M4184 1504 c17 -12 22 -34 8 -34 -5 0 -7 -13 -4 -29 2 -16 -1 -32 -7
-36 -8 -5 -10 1 -5 19 3 14 2 26 -3 26 -15 0 -14 -107 1 -113 7 -3 13 -22 14
-42 3 -80 10 -41 11 60 1 59 4 111 7 116 3 5 25 9 50 9 24 0 44 4 44 9 0 4
-20 7 -45 5 -32 -3 -45 0 -45 9 0 7 -9 13 -21 13 -18 0 -18 -2 -5 -12z m-1
-134 c-3 -12 -8 -19 -11 -16 -5 6 5 36 12 36 2 0 2 -9 -1 -20z"/>
<path d="M4101 1494 c0 -11 3 -14 6 -6 3 7 2 16 -1 19 -3 4 -6 -2 -5 -13z"/>
<path d="M4070 1490 c0 -5 5 -10 11 -10 5 0 7 5 4 10 -3 6 -8 10 -11 10 -2 0
-4 -4 -4 -10z"/>
<path d="M4157 1479 c6 -23 9 -24 16 -5 3 8 0 17 -7 19 -10 4 -12 -1 -9 -14z"/>
<path d="M4162 1257 c1 -71 2 -73 20 -58 20 17 23 31 7 31 -5 0 -7 -5 -3 -12
4 -6 3 -8 -3 -5 -6 4 -10 30 -9 58 0 28 -2 53 -6 55 -4 3 -7 -28 -6 -69z"/>
<path d="M4465 1510 c-3 -5 1 -10 10 -10 9 0 13 5 10 10 -3 6 -8 10 -10 10 -2
0 -7 -4 -10 -10z"/>
<path d="M4500 1500 c0 -6 6 -10 13 -10 8 0 7 -3 -3 -10 -9 -6 -20 -5 -29 3
-12 9 -13 9 -7 0 4 -7 3 -13 -3 -13 -5 0 -12 5 -14 10 -3 6 -4 5 -3 -2 1 -7
-4 -19 -11 -27 -8 -7 -12 -20 -9 -27 3 -7 1 -16 -4 -19 -6 -4 -10 -12 -10 -18
0 -7 4 -6 10 3 6 10 10 11 10 3 0 -7 -9 -22 -20 -33 -11 -11 -20 -28 -20 -37
0 -15 2 -16 10 -3 9 13 10 13 10 0 0 -13 1 -13 10 0 13 20 13 33 0 25 -5 -3
-10 -1 -10 4 0 6 6 11 14 11 19 0 31 51 14 61 -12 8 -4 13 16 10 5 -1 6 5 3
13 -3 8 0 17 8 19 11 5 11 -4 0 -51 -8 -31 -18 -70 -24 -85 -6 -16 -11 -30
-11 -33 0 -2 22 -4 49 -4 l49 0 -19 73 c-10 39 -19 80 -19 90 0 28 19 20 35
-15 15 -32 15 -26 0 32 -2 8 -4 18 -4 21 -2 11 -31 19 -31 9z"/>
<path d="M4516 1425 c3 -11 8 -32 11 -47 6 -33 28 -54 38 -38 3 5 -1 10 -9 10
-9 0 -16 8 -16 18 -1 9 -8 31 -16 47 -8 17 -12 21 -8 10z"/>
<path d="M4550 1380 c0 -11 4 -20 9 -20 5 0 7 9 4 20 -3 11 -7 20 -9 20 -2 0
-4 -9 -4 -20z"/>
<path d="M4558 1323 c-9 -2 -15 -10 -12 -18 3 -7 0 -16 -7 -21 -19 -11 -99 -8
-112 5 -6 6 -18 11 -26 10 -10 0 -7 -4 7 -9 12 -5 22 -13 22 -18 0 -5 27 -9
60 -9 44 0 60 4 60 14 0 7 9 13 20 13 11 0 20 4 20 10 0 5 -8 6 -17 3 -16 -6
-16 -5 -4 10 7 9 12 16 10 16 -2 -1 -12 -3 -21 -6z"/>
<path d="M4380 1265 c0 -8 0 -18 -1 -22 0 -4 3 -9 8 -10 4 -2 9 8 9 22 1 14
-2 25 -7 25 -5 0 -9 -7 -9 -15z"/>
<path d="M4561 1254 c0 -11 3 -14 6 -6 3 7 2 16 -1 19 -3 4 -6 -2 -5 -13z"/>
<path d="M4576 1231 c-4 -5 -2 -20 3 -33 6 -12 10 -17 10 -9 1 11 4 11 16 1
20 -16 20 7 1 33 -15 19 -22 21 -30 8z m19 -11 c3 -5 1 -10 -4 -10 -6 0 -11 5
-11 10 0 6 2 10 4 10 3 0 8 -4 11 -10z"/>
<path d="M4364 1209 c-5 -9 -2 -10 9 -6 18 7 24 -8 7 -16 -6 -3 -5 -4 2 -3 16
3 17 28 1 33 -6 2 -15 -1 -19 -8z"/>
<path d="M4797 1513 c-14 -13 -6 -23 19 -23 14 0 23 4 19 10 -3 6 1 10 10 10
10 0 15 -6 12 -13 -3 -8 1 -14 9 -14 7 0 10 5 7 10 -3 5 0 7 8 5 8 -3 13 -11
12 -17 -2 -6 2 -11 8 -11 6 0 9 8 7 17 -4 24 -64 40 -90 24 -11 -7 -17 -8 -13
-2 7 12 2 15 -8 4z"/>
<path d="M4756 1492 c-3 -5 1 -9 9 -9 8 0 12 4 9 9 -3 4 -7 8 -9 8 -2 0 -6 -4
-9 -8z"/>
<path d="M4927 1459 c4 -13 8 -18 11 -10 2 7 -1 18 -6 23 -8 8 -9 4 -5 -13z"/>
<path d="M4730 1449 c0 -10 5 -19 12 -19 6 0 8 3 5 7 -4 3 0 11 9 17 13 10 13
12 -5 13 -15 1 -21 -4 -21 -18z"/>
<path d="M4905 1450 c-3 -5 -1 -10 4 -10 6 0 11 5 11 10 0 6 -2 10 -4 10 -3 0
-8 -4 -11 -10z"/>
<path d="M4730 1404 c0 -8 5 -12 10 -9 6 4 8 11 5 16 -9 14 -15 11 -15 -7z"/>
<path d="M4770 1389 c0 -9 49 -33 56 -27 1 2 -11 11 -27 20 -16 9 -29 13 -29
7z"/>
<path d="M4774 1356 c11 -9 24 -16 30 -16 12 0 7 5 -24 19 -24 11 -24 11 -6
-3z"/>
<path d="M4862 1353 c9 -2 15 -10 12 -18 -3 -8 5 -19 18 -26 23 -12 23 -12 4
10 -25 28 -3 27 24 -1 18 -19 19 -24 6 -26 -9 -2 -16 -8 -16 -14 0 -5 7 -8 15
-4 9 3 15 0 15 -9 0 -9 -6 -12 -17 -8 -11 4 -14 3 -9 -5 16 -26 36 -12 36 23
0 19 -5 35 -11 35 -5 0 -8 4 -5 8 6 10 -57 43 -77 41 -7 -1 -4 -3 5 -6z"/>
<path d="M4730 1248 c0 -5 5 -17 12 -27 11 -18 13 -18 25 -3 12 16 13 15 11
-3 -2 -11 2 -20 7 -20 6 0 16 -4 24 -9 8 -5 16 -4 20 1 11 17 53 26 61 13 5
-8 9 -3 12 13 4 23 4 24 -21 11 -14 -8 -34 -14 -43 -14 -10 0 -18 -5 -18 -12
0 -6 -9 0 -21 13 -12 13 -26 23 -31 21 -6 -2 -8 3 -5 10 3 9 -3 14 -14 14 -11
0 -19 -4 -19 -8z"/>
<path d="M4920 1219 c0 -5 5 -7 10 -4 6 3 10 8 10 11 0 2 -4 4 -10 4 -5 0 -10
-5 -10 -11z"/>
<path d="M5071 1503 c-2 -21 11 -43 22 -36 5 3 17 -3 25 -13 13 -18 14 -18 7
6 -4 14 -12 32 -17 40 -8 12 -9 12 -4 -2 3 -11 0 -18 -9 -18 -7 0 -16 8 -18
18 -3 9 -5 12 -6 5z"/>
<path d="M5285 1490 c-3 -11 -11 -19 -17 -17 -6 1 -22 -17 -35 -40 -20 -35
-21 -42 -8 -36 14 5 16 2 11 -18 -3 -13 2 -6 13 16 10 22 16 46 13 54 -3 9 -1
12 6 8 6 -4 17 6 25 23 9 16 12 30 7 30 -5 0 -11 -9 -15 -20z"/>
<path d="M5130 1375 c17 -31 31 -63 31 -73 1 -9 4 -3 8 13 4 19 2 38 -6 51 -7
11 -10 25 -6 29 5 5 0 3 -9 -4 -11 -8 -18 -9 -18 -3 0 6 5 14 10 17 15 9 2 25
-20 25 -18 0 -17 -4 10 -55z"/>
<path d="M5186 1294 c-3 -9 -2 -23 4 -32 7 -14 9 -10 10 16 0 35 -5 41 -14 16z"/>
<path d="M5160 1270 c0 -5 5 -10 11 -10 5 0 7 5 4 10 -3 6 -8 10 -11 10 -2 0
-4 -4 -4 -10z"/>
<path d="M5167 1233 c-4 -3 -7 -15 -7 -26 0 -25 9 -17 15 12 4 22 2 25 -8 14z"/>
<path d="M5185 1201 c-3 -5 -1 -12 5 -16 5 -3 10 1 10 9 0 18 -6 21 -15 7z"/>
<path d="M5580 1510 c0 -5 11 -9 25 -8 14 1 25 6 25 10 0 4 -11 8 -25 8 -14 0
-25 -4 -25 -10z"/>
<path d="M5787 1503 c6 -15 4 -16 -9 -6 -8 7 -18 10 -21 6 -13 -13 -7 -20 18
-20 18 0 25 5 25 18 0 11 -4 19 -10 19 -5 0 -6 -8 -3 -17z"/>
<path d="M5605 1490 c-27 -7 -25 -8 17 -9 27 -1 48 -6 51 -13 2 -7 8 -10 12
-5 9 8 -24 37 -40 35 -5 0 -23 -4 -40 -8z"/>
<path d="M5687 1396 c18 -24 36 -16 26 11 -5 12 -7 12 -14 1 -7 -10 -9 -10 -9
0 0 6 -5 12 -10 12 -6 0 -3 -11 7 -24z"/>
<path d="M5679 1378 c-5 -18 -6 -38 -1 -34 7 8 12 36 6 36 -2 0 -4 -1 -5 -2z"/>
<path d="M5676 1322 c-3 -5 -1 -14 4 -22 4 -7 6 -20 3 -29 -3 -12 0 -11 11 3
9 11 16 25 16 32 0 14 -27 27 -34 16z m22 -27 c-3 -3 -9 2 -12 12 -6 14 -5 15
5 6 7 -7 10 -15 7 -18z"/>
<path d="M5701 1253 c3 -19 -2 -25 -14 -15 -10 8 -13 7 -14 -6 -1 -11 6 -18
19 -19 11 -1 18 1 14 4 -3 3 -1 12 5 19 7 8 7 14 -1 19 -6 4 -10 3 -9 -2z"/>
<path d="M5935 1512 c-5 -4 -11 -24 -13 -44 -3 -34 -1 -38 19 -38 22 0 22 0 3
16 -16 13 -16 15 -1 10 9 -3 17 -1 17 3 0 5 14 14 32 20 30 11 31 12 12 26
-21 16 -53 19 -69 7z m35 -32 c-20 -13 -43 -13 -35 0 3 6 16 10 28 10 18 0 19
-2 7 -10z"/>
<path d="M6032 1500 c0 -14 2 -19 5 -12 2 6 2 18 0 25 -3 6 -5 1 -5 -13z"/>
<path d="M6057 1503 c-14 -13 -6 -25 8 -13 10 9 15 9 15 1 0 -6 7 -11 16 -11
14 0 14 2 0 15 -16 16 -29 19 -39 8z"/>
<path d="M5920 1404 c0 -8 5 -12 10 -9 6 3 10 10 10 16 0 5 -4 9 -10 9 -5 0
-10 -7 -10 -16z"/>
<path d="M5950 1404 c0 -8 5 -12 10 -9 6 4 8 11 5 16 -9 14 -15 11 -15 -7z"/>
<path d="M5923 1260 c-1 -17 2 -30 6 -30 5 0 12 -7 15 -16 5 -12 2 -15 -9 -10
-10 3 -13 2 -10 -5 4 -6 13 -8 20 -5 7 2 18 -1 25 -7 10 -9 11 -9 5 2 -6 11
-4 13 9 8 11 -4 15 -3 11 4 -4 6 -13 8 -21 5 -7 -3 -16 -1 -19 4 -4 6 -1 10 5
10 6 0 8 5 5 10 -4 6 -11 8 -16 5 -5 -4 -9 8 -9 24 0 40 -14 40 -17 1z"/>
<path d="M6023 1200 c1 -14 4 -16 14 -8 16 13 16 15 -1 21 -10 4 -14 0 -13
-13z"/>
<path d="M6085 1209 c-32 -7 -32 -8 2 -15 12 -2 25 1 28 7 10 15 4 16 -30 8z"/>
<path d="M6324 1496 c-3 -14 -3 -29 0 -34 3 -6 -1 -12 -9 -16 -8 -3 -15 -11
-15 -18 0 -9 3 -8 10 2 8 12 10 9 10 -12 0 -15 -5 -30 -12 -34 -8 -5 -9 -1 -4
12 6 15 5 17 -5 6 -11 -10 -10 -15 3 -29 16 -15 17 -14 22 8 6 23 14 66 15 82
1 4 5 7 10 7 10 0 -1 -61 -22 -132 l-15 -48 50 0 c42 0 49 2 44 18 -3 9 -14
51 -25 92 -13 51 -24 76 -35 78 -19 4 -20 14 -4 30 9 9 9 12 0 12 -6 0 -14
-11 -18 -24z"/>
<path d="M6390 1491 c0 -7 -6 -9 -12 -6 -7 4 -6 1 3 -7 9 -7 15 -24 13 -38 -2
-31 17 -110 28 -110 4 0 4 7 1 17 -4 11 -3 14 5 9 7 -4 12 -1 12 9 0 11 -5 15
-15 11 -8 -3 -15 -1 -15 4 0 6 6 10 13 10 6 0 4 5 -5 11 -10 5 -18 15 -18 22
0 8 4 6 11 -3 9 -12 10 -11 4 5 -4 11 -9 31 -12 45 -5 27 -13 40 -13 21z"/>
<path d="M6278 1347 c-3 -19 -2 -25 4 -19 6 6 8 18 6 28 -3 14 -5 12 -10 -9z"/>
<path d="M6298 1327 c-3 -19 -2 -25 4 -19 6 6 8 18 6 28 -3 14 -5 12 -10 -9z"/>
<path d="M6424 1304 c7 -18 -5 -24 -53 -26 -54 -2 -53 -15 2 -14 30 1 47 7 60
23 21 26 21 30 2 30 -9 0 -14 -6 -11 -13z"/>
<path d="M6260 1299 c0 -5 5 -7 10 -4 6 3 10 8 10 11 0 2 -4 4 -10 4 -5 0 -10
-5 -10 -11z"/>
<path d="M6445 1270 c-17 -7 -17 -9 -2 -9 9 -1 17 -6 17 -12 0 -5 -5 -7 -10
-4 -11 7 -7 -36 5 -55 9 -15 32 -12 32 5 0 10 -4 12 -12 5 -9 -7 -14 -7 -17 2
-6 17 2 39 11 33 5 -2 6 7 3 20 -2 14 -5 25 -6 24 0 0 -10 -4 -21 -9z"/>
<path d="M6236 1194 c-5 -14 -4 -15 9 -4 17 14 19 20 6 20 -5 0 -12 -7 -15
-16z"/>
<path d="M6861 1480 c-13 -28 -15 -38 -6 -30 9 7 22 9 32 5 10 -5 21 -7 26 -7
4 1 7 -2 7 -8 0 -5 -4 -10 -9 -10 -16 0 -23 -34 -9 -45 7 -5 14 -23 15 -40 l1
-30 -14 25 c-11 21 -13 22 -14 6 0 -11 8 -28 18 -39 12 -15 13 -18 2 -12 -8 4
-12 5 -8 0 4 -4 2 -15 -5 -23 -11 -13 -9 -14 11 -1 19 12 22 22 22 79 0 40 -4
60 -9 51 -6 -9 -11 -10 -15 -2 -4 6 0 14 8 17 10 4 15 18 14 42 -1 20 -3 31
-6 24 -2 -6 -15 -12 -29 -12 -22 0 -24 2 -12 16 8 10 15 12 17 5 2 -7 9 -5 19
5 8 8 12 18 8 22 -4 4 -10 1 -12 -6 -4 -10 -8 -10 -18 -2 -11 9 -18 3 -34 -30z"/>
<path d="M6666 1475 c-3 -8 1 -21 9 -29 8 -7 11 -17 7 -21 -4 -5 -1 -4 7 0 11
6 13 4 7 -10 -9 -23 2 -57 16 -49 7 5 9 1 5 -9 -7 -18 8 -33 17 -18 9 14 -5
41 -21 41 -11 0 -13 7 -9 25 5 18 1 30 -13 41 -11 10 -17 23 -14 30 3 8 3 14
0 14 -3 0 -7 -7 -11 -15z"/>
<path d="M6844 1425 c-10 -8 -15 -15 -10 -15 5 0 3 -6 -3 -13 -8 -10 -7 -14 4
-14 8 0 19 13 24 29 12 32 11 33 -15 13z"/>
<path d="M6633 1385 c4 -8 2 -17 -3 -20 -5 -3 -11 3 -13 12 -3 10 -4 6 -4 -10
1 -17 6 -26 13 -23 7 3 11 -3 9 -12 -1 -9 -8 -16 -14 -14 -6 1 -11 -5 -11 -13
0 -8 5 -14 12 -12 6 1 14 -7 16 -18 4 -16 2 -17 -10 -8 -11 10 -14 8 -15 -8
-1 -14 3 -19 13 -15 8 3 14 1 14 -4 0 -6 -7 -10 -15 -10 -9 0 -15 -9 -15 -25
0 -18 5 -25 20 -25 18 0 19 7 19 110 0 71 -4 110 -11 110 -5 0 -8 -7 -5 -15z
m4 -180 c0 -8 -4 -15 -9 -15 -4 0 -8 7 -8 15 0 8 4 15 8 15 5 0 9 -7 9 -15z"/>
<path d="M6823 1354 c-15 -16 -16 -24 -4 -24 8 0 24 30 19 35 -2 2 -9 -3 -15
-11z"/>
<path d="M6738 1313 c-7 -31 12 -73 33 -73 10 0 19 4 19 9 0 5 -8 8 -17 7 -11
0 -17 6 -17 17 1 9 -2 17 -6 17 -5 0 -6 9 -3 20 3 11 3 20 0 20 -3 0 -7 -8 -9
-17z"/>
<path d="M6793 1300 c1 -11 4 -20 8 -20 4 0 9 9 12 20 3 13 0 20 -8 20 -8 0
-13 -9 -12 -20z"/>
<path d="M6914 1255 c-4 -8 -11 -12 -18 -8 -6 3 -3 -3 7 -14 10 -12 14 -23 9
-24 -6 -2 -4 -10 4 -17 12 -11 14 -6 14 33 0 46 -6 57 -16 30z"/>
<path d="M7133 1507 c0 -7 12 -14 26 -14 23 -2 24 -1 6 7 -19 8 -19 9 2 9 12
1 24 -5 26 -11 3 -8 6 -6 6 5 1 13 -7 17 -32 17 -21 0 -34 -5 -34 -13z"/>
<path d="M7220 1501 c13 -10 13 -11 0 -11 -12 0 -12 -2 -2 -9 8 -4 13 -11 13
-15 -3 -21 1 -26 21 -26 20 0 20 1 4 13 -9 7 -18 21 -20 32 -1 10 -9 21 -17
23 -11 3 -11 1 1 -7z"/>
<path d="M7100 1361 c0 -6 4 -13 10 -16 6 -3 7 1 4 9 -7 18 -14 21 -14 7z"/>
<path d="M7195 1330 c-3 -5 -1 -10 4 -10 6 0 11 5 11 10 0 6 -2 10 -4 10 -3 0
-8 -4 -11 -10z"/>
<path d="M7253 1315 c0 -8 4 -15 9 -15 4 0 8 4 8 9 0 6 -4 12 -8 15 -5 3 -9
-1 -9 -9z"/>
<path d="M7240 1274 c0 -8 5 -12 10 -9 6 4 8 11 5 16 -9 14 -15 11 -15 -7z"/>
<path d="M7060 1246 c0 -8 4 -17 9 -21 6 -3 9 4 8 15 -1 23 -17 28 -17 6z"/>
<path d="M7268 1254 c-4 -3 -12 -7 -20 -8 -25 -4 -78 -43 -70 -51 4 -4 -3 -5
-15 -2 -13 3 -23 1 -23 -4 0 -5 11 -9 25 -9 14 0 25 5 25 11 0 5 5 7 10 4 6
-3 10 0 10 7 0 9 3 9 10 -2 7 -11 10 -11 10 -2 0 7 5 10 10 7 6 -3 10 4 10 17
0 16 3 19 9 10 6 -10 10 -9 14 7 5 22 4 25 -5 15z m-36 -36 c-7 -7 -12 -8 -12
-2 0 14 12 26 19 19 2 -3 -1 -11 -7 -17z"/>
</g>
</svg>
